<?xml version="1.0" standalone="no"?>
<!DOCTYPE svg PUBLIC "-//W3C//DTD SVG 20010904//EN"
 "http://www.w3.org/TR/2001/REC-SVG-20010904/DTD/svg10.dtd">
<svg version="1.0" xmlns="http://www.w3.org/2000/svg"
 width="2048.000000pt" height="2048.000000pt" viewBox="0 0 2048.000000 2048.000000"
 preserveAspectRatio="xMidYMid meet">
<metadata>
Created by potrace 1.14, written by Peter Selinger 2001-2017
</metadata>
<g transform="translate(0.000000,2048.000000) scale(0.100000,-0.100000)"
fill="#000000" stroke="none">
<path d="M12415 20405 c-121 -40 -335 -110 -475 -155 -440 -142 -783 -285
-1340 -559 -52 -26 -139 -73 -193 -105 l-97 -59 -58 19 c-51 17 -90 19 -372
18 -337 0 -558 -17 -907 -69 -278 -42 -340 -60 -520 -156 -143 -76 -210 -99
-290 -99 -54 0 -102 -13 -296 -79 -351 -119 -658 -242 -767 -305 l-45 -26 40
5 c232 30 500 24 735 -15 102 -17 131 -19 182 -10 34 7 231 68 437 136 364
121 610 195 756 229 79 18 435 65 495 65 35 0 42 5 69 46 17 25 29 49 26 53
-2 5 -35 11 -72 15 -37 3 -104 10 -148 16 -44 5 -126 9 -182 9 -62 1 -103 5
-103 11 0 6 -5 10 -11 10 -5 0 -7 -4 -4 -10 3 -5 2 -10 -3 -10 -13 0 -32 47
-32 80 0 26 4 30 29 30 16 0 42 7 57 15 33 17 54 19 54 6 0 -5 13 -14 28 -20
31 -13 78 -6 162 24 53 19 357 31 460 18 54 -7 67 -12 75 -30 5 -13 17 -23 25
-23 8 0 -17 -14 -56 -31 -85 -36 -130 -74 -179 -151 l-36 -58 35 0 c19 0 117
7 218 16 523 44 1209 0 1639 -107 90 -22 262 -60 382 -85 295 -60 298 -61 592
-212 44 -22 123 -59 175 -82 257 -112 744 -398 910 -534 30 -25 133 -105 229
-178 186 -142 338 -284 411 -388 102 -143 206 -277 350 -451 156 -189 265
-343 340 -484 84 -155 150 -288 150 -301 0 -8 5 -14 10 -14 35 0 -124 397
-203 509 -18 25 -45 71 -59 101 -16 33 -58 87 -105 135 -43 44 -88 101 -101
125 -12 25 -36 61 -53 80 -17 19 -67 81 -111 138 -44 57 -88 106 -97 110 -9 3
-32 22 -51 41 -19 20 -26 29 -15 21 15 -11 14 -8 -4 13 -16 18 -20 27 -11 27
11 0 11 3 2 12 -18 18 -14 31 4 16 49 -39 148 -146 307 -330 165 -193 208
-248 155 -202 -20 18 -20 17 2 -13 21 -29 51 -48 35 -23 -10 16 1 11 16 -7 12
-15 12 -16 -1 -8 -13 8 -13 7 -1 -8 15 -18 26 -23 16 -7 -12 19 11 10 32 -12
11 -13 41 -40 66 -61 52 -42 130 -140 142 -177 9 -28 19 -47 162 -305 292
-527 369 -677 453 -878 18 -43 34 -76 36 -74 2 1 -10 36 -27 77 -22 55 -28 82
-23 104 4 17 8 41 9 54 3 34 10 35 46 5 18 -15 29 -21 24 -13 -7 13 -6 13 7 2
9 -7 46 -68 83 -135 36 -67 70 -129 75 -137 23 -38 263 -529 347 -708 24 -52
40 -99 37 -104 -4 -6 -3 -8 3 -5 7 5 85 -145 89 -172 0 -3 11 -28 24 -56 13
-27 23 -63 22 -79 -1 -37 25 -103 48 -119 9 -6 18 -15 19 -19 1 -5 8 -23 15
-40 23 -51 29 -72 27 -82 -1 -5 2 -12 7 -15 4 -3 22 -49 39 -101 18 -52 41
-114 52 -137 12 -23 21 -48 21 -55 0 -7 7 -22 15 -32 8 -11 15 -34 15 -52 0
-18 5 -36 10 -39 11 -7 8 -54 -4 -74 -7 -10 -57 -8 -76 4 -11 7 17 -73 32 -89
4 -6 8 -17 8 -25 1 -9 9 -34 20 -56 11 -22 19 -47 20 -56 0 -8 4 -19 8 -25 5
-5 15 -25 22 -44 18 -48 142 -323 202 -450 28 -58 61 -128 73 -157 33 -75 161
-309 285 -523 59 -102 160 -284 225 -405 65 -121 173 -305 242 -410 68 -104
182 -278 252 -385 270 -413 302 -461 363 -542 34 -45 98 -116 143 -157 44 -42
141 -139 215 -216 336 -349 772 -763 1100 -1044 176 -151 196 -166 331 -256
87 -58 115 -72 117 -59 2 8 2 17 0 18 -114 76 -366 274 -483 381 -55 50 -134
119 -175 154 -129 109 -618 580 -775 747 -82 87 -206 218 -275 289 -91 93
-152 168 -218 265 -50 74 -134 189 -187 255 -107 134 -228 310 -297 430 -25
44 -154 296 -286 560 -223 444 -289 589 -377 830 -19 50 -57 149 -85 220 -94
237 -281 717 -361 928 -92 244 -146 352 -204 410 -23 23 -47 52 -54 65 -8 16
-11 92 -10 270 2 191 -2 278 -16 385 -21 166 -20 176 65 522 61 247 90 383
110 517 19 132 -8 273 -124 638 -80 252 -93 302 -111 431 -16 115 -11 155 46
383 115 459 178 1026 166 1496 -8 288 -49 631 -132 1085 -23 132 -49 273 -56
313 l-12 72 -1996 -1 -1996 -2 -220 -72z m-3237 -1111 c13 -2 22 -12 22 -23 0
-15 -17 -25 -77 -45 -143 -46 -209 -60 -219 -45 -3 5 -15 4 -26 -2 -18 -10
-20 -9 -14 7 6 16 4 15 -14 -3 -21 -23 -47 -32 -35 -13 3 6 1 10 -4 10 -6 0
-11 -7 -11 -16 0 -13 -3 -14 -15 -4 -8 7 -22 10 -30 6 -8 -3 -15 0 -15 7 0 7
-7 4 -14 -6 -9 -12 -16 -14 -21 -8 -4 8 -11 6 -21 -4 -9 -8 -19 -13 -24 -10
-8 5 -24 -1 -126 -47 -22 -10 -46 -18 -54 -18 -7 0 -21 -6 -29 -14 -18 -15
-106 -46 -131 -46 -9 0 -43 -22 -74 -50 -31 -27 -67 -55 -79 -61 l-22 -12 20
23 c11 13 14 20 8 16 -12 -6 -18 5 -14 27 2 12 -17 8 -21 -4 -3 -9 -10 -9 -26
0 -12 7 -27 9 -32 6 -6 -4 -5 5 2 19 6 14 17 26 24 26 7 0 11 6 8 13 -3 9 5
13 23 12 25 0 28 4 31 38 2 25 9 40 20 44 9 3 24 15 33 26 12 15 28 19 70 20
30 0 59 4 66 9 7 5 21 7 33 3 12 -4 20 -2 20 5 0 8 10 9 31 5 18 -4 34 -3 38
3 3 5 40 13 81 16 41 4 92 10 112 15 20 5 39 6 42 3 4 -3 6 -1 6 4 0 5 8 10
18 11 30 3 156 33 177 43 52 24 183 32 263 14z m-948 -100 c-57 -17 -70 -17
-46 1 11 8 36 15 55 14 l36 0 -45 -15z m-219 -261 c13 -16 12 -17 -3 -4 -17
13 -22 21 -14 21 2 0 10 -8 17 -17z m7914 -3004 c-4 -5 -1 -9 4 -9 6 0 11 -8
11 -17 -1 -17 -1 -17 -11 0 -6 9 -14 15 -19 12 -4 -3 -6 4 -3 15 3 11 9 17 14
14 5 -3 7 -10 4 -15z"/>
<path d="M8214 18986 c0 -28 16 -25 35 7 13 20 13 21 -2 8 -11 -9 -17 -10 -17
-2 0 6 -4 11 -8 11 -4 0 -8 -11 -8 -24z"/>
<path d="M10984 19031 c11 -17 207 -34 222 -18 6 6 -44 14 -150 22 -54 5 -76
4 -72 -4z"/>
<path d="M9260 19010 c-8 -4 -49 -24 -90 -43 -152 -72 -395 -250 -505 -369
-119 -128 -91 -131 47 -5 145 131 315 257 505 371 59 35 85 57 66 55 -4 0 -15
-4 -23 -9z"/>
<path d="M4465 18914 c-278 -20 -360 -28 -485 -44 -172 -22 -330 -49 -534 -90
-211 -43 -342 -57 -576 -65 -236 -8 -310 -21 -394 -71 -54 -32 -64 -34 -112
-28 -126 15 -224 -96 -255 -288 -17 -113 -6 -494 20 -669 27 -186 174 -932
217 -1103 71 -285 166 -534 344 -906 134 -280 132 -274 204 -561 78 -311 188
-573 344 -816 104 -163 103 -155 54 -319 -23 -77 -62 -221 -87 -321 -48 -193
-107 -395 -200 -683 -31 -96 -79 -263 -106 -370 -28 -107 -79 -307 -114 -445
-86 -336 -109 -454 -204 -1040 -79 -488 -106 -843 -97 -1275 9 -433 37 -746
96 -1062 40 -219 65 -301 154 -503 78 -176 159 -304 209 -329 49 -23 58 -14
20 21 -90 85 -175 269 -178 386 -1 31 0 57 1 57 2 0 12 -17 23 -39 11 -21 29
-41 41 -44 37 -10 22 23 -39 81 -69 67 -83 92 -110 198 -39 155 -46 267 -46
734 0 536 11 659 100 1190 43 258 117 601 160 750 73 246 148 480 195 610 l31
85 -6 -85 c-3 -47 -13 -143 -20 -215 -8 -71 -19 -222 -25 -335 -12 -250 -21
-979 -11 -895 6 45 8 52 10 25 2 -29 4 -32 11 -15 5 11 13 126 19 255 6 129
20 327 31 440 10 113 24 269 30 347 27 362 30 403 61 648 14 111 131 690 186
920 77 323 104 447 98 453 -7 8 -60 -124 -105 -258 -52 -156 -122 -441 -169
-690 -64 -340 -113 -507 -231 -790 -76 -183 -156 -455 -221 -755 -23 -104 -45
-206 -49 -225 -100 -444 -112 -582 -114 -1320 0 -327 -3 -579 -6 -560 -5 37
-23 46 -41 20 -9 -12 -10 -10 -6 7 3 13 -1 42 -8 65 -13 46 -29 168 -45 359
-54 632 -20 1218 111 1914 21 116 49 262 60 325 57 306 139 660 239 1035 50
186 75 272 154 530 25 83 60 202 77 265 28 108 40 155 90 355 31 122 49 185
69 245 10 30 33 109 50 175 18 66 44 161 58 210 27 99 191 565 270 770 28 72
81 211 118 310 37 99 99 254 139 345 40 91 94 219 121 285 28 70 89 188 146
282 53 89 134 227 179 305 104 181 130 221 260 398 58 80 150 209 204 288 116
170 257 339 428 518 116 121 276 254 337 281 36 15 130 94 130 109 0 8 -12 6
-37 -7 -21 -10 -46 -19 -58 -19 -17 1 -16 3 10 23 55 41 187 109 203 105 4 -1
33 15 64 35 31 20 141 80 245 133 103 53 194 105 200 115 17 24 78 60 117 69
24 6 15 8 -38 9 -39 1 -151 17 -250 37 -436 85 -753 114 -1321 119 -214 1
-412 1 -440 -1z m-1850 -9993 c3 -5 1 -12 -5 -16 -5 -3 -10 1 -10 9 0 18 6 21
15 7z"/>
<path d="M11755 18664 c11 -8 74 -47 140 -87 392 -232 836 -565 1128 -846 42
-41 77 -70 77 -65 0 27 -225 252 -400 400 -258 219 -660 488 -873 583 -74 33
-104 40 -72 15z"/>
<path d="M6690 18640 c-159 -50 -752 -345 -835 -415 -29 -24 -29 -25 -5 -16
33 11 89 39 280 139 85 44 234 115 330 158 168 74 254 117 275 135 11 11 -10
10 -45 -1z"/>
<path d="M9305 18396 c-55 -19 -144 -55 -198 -80 -109 -51 -355 -195 -400
-235 l-29 -27 126 -2 c89 -1 144 3 188 14 67 17 211 19 263 4 58 -16 105 -21
105 -10 0 5 11 10 25 10 33 0 47 28 34 71 -5 19 -16 42 -24 53 -13 17 -17 18
-87 2 -40 -9 -88 -26 -107 -37 -27 -16 -36 -18 -42 -8 -11 19 8 38 39 37 49
-1 63 2 57 12 -6 10 130 150 183 188 24 17 46 22 94 23 60 1 61 2 23 10 -81
16 -147 10 -250 -25z"/>
<path d="M9640 18396 c0 -3 25 -13 55 -22 39 -13 54 -22 53 -33 -2 -12 6 -16
32 -17 18 -1 36 -6 38 -13 2 -7 15 -22 29 -35 13 -12 25 -34 27 -49 2 -24 60
-90 70 -80 3 3 2 -4 -1 -15 -4 -16 -1 -20 14 -18 10 2 24 -2 32 -8 12 -9 13
-8 6 4 -7 12 -6 13 6 4 8 -6 23 -14 34 -17 19 -7 19 -6 3 7 -10 7 -18 16 -18
19 0 11 34 -6 71 -34 40 -32 66 -43 121 -53 32 -6 37 -4 32 9 -10 24 36 15 76
-15 53 -40 75 -66 108 -129 18 -32 39 -64 47 -71 8 -7 13 -15 10 -19 -2 -4 14
-31 36 -59 45 -60 48 -68 17 -48 -13 8 -34 16 -48 18 -14 2 -35 9 -47 16 -12
7 -30 12 -40 12 -11 0 -24 5 -30 11 -6 6 -17 11 -24 13 -29 4 -118 50 -113 57
2 5 -8 16 -23 26 -15 10 -36 26 -45 36 -10 9 -25 17 -33 17 -9 0 -35 9 -57 20
-23 11 -50 20 -61 20 -10 0 -28 5 -39 11 -19 10 -83 22 -118 21 -8 0 -49 7
-91 15 -51 9 -87 11 -110 5 -34 -8 -34 -8 28 -21 34 -6 74 -9 90 -6 23 5 25 4
13 -5 -12 -10 -11 -11 8 -7 12 3 22 2 22 -3 0 -4 21 -13 48 -20 56 -16 216
-81 287 -118 27 -14 56 -27 64 -28 8 -2 17 -7 20 -11 3 -5 49 -32 101 -60 124
-66 416 -246 555 -341 61 -42 130 -89 155 -106 100 -66 300 -228 379 -307 89
-89 228 -257 351 -424 41 -55 110 -149 155 -210 185 -249 322 -480 535 -900
134 -264 182 -372 315 -705 75 -188 78 -199 64 -216 -14 -17 -3 -98 22 -166
10 -29 19 -58 19 -65 0 -7 11 -37 25 -67 14 -30 25 -61 25 -68 0 -8 5 -19 12
-26 12 -12 19 -72 7 -72 -4 0 -10 7 -13 16 -9 23 -8 26 7 18 7 -4 9 -3 4 2 -5
5 -14 9 -20 9 -12 0 -199 385 -308 635 -88 202 -120 267 -217 440 -148 264
-348 569 -516 790 -207 271 -621 715 -612 656 1 -7 53 -69 117 -137 393 -424
540 -617 799 -1049 74 -122 280 -516 280 -534 0 -17 256 -524 371 -736 194
-354 220 -414 314 -717 55 -174 59 -205 33 -222 -15 -9 -18 -8 -18 5 0 8 -4
13 -9 10 -5 -4 -12 0 -14 6 -3 7 -6 3 -6 -9 -1 -12 4 -25 9 -28 6 -3 10 -16
10 -28 0 -38 102 -437 110 -432 5 3 11 1 15 -5 4 -6 10 -8 15 -5 4 3 6 -3 3
-13 -2 -10 3 -24 11 -31 9 -8 16 -21 16 -30 0 -14 2 -14 10 -1 5 8 10 11 10 5
2 -24 31 -235 39 -285 6 -30 12 -87 14 -125 2 -39 9 -81 16 -93 6 -12 16 -70
22 -129 6 -60 15 -116 21 -127 5 -10 7 -37 3 -60 -4 -30 -3 -37 4 -26 9 12 11
10 11 -12 0 -15 -4 -49 -10 -75 -9 -46 -21 -245 -20 -326 1 -21 -5 -51 -11
-66 l-12 -28 -83 56 c-46 31 -81 57 -79 59 15 15 -36 80 -153 194 -79 76 -223
236 -337 373 -110 132 -249 296 -308 364 -99 112 -147 175 -147 192 0 15 190
-26 404 -88 105 -30 234 -65 286 -78 52 -13 105 -27 118 -31 12 -3 22 -2 22 3
0 5 -111 44 -247 87 -319 101 -433 133 -524 147 -41 7 -88 18 -106 25 -45 19
-148 153 -260 339 -113 188 -143 234 -143 219 0 -34 119 -252 249 -457 35 -54
61 -100 59 -102 -8 -8 -267 65 -301 85 -20 12 -65 59 -99 103 -34 45 -119 152
-188 238 -69 86 -135 169 -148 185 -19 25 -18 22 5 -21 50 -95 131 -210 208
-298 43 -48 75 -90 73 -93 -11 -11 -108 55 -168 116 -47 46 -90 105 -147 200
-105 177 -115 198 -121 245 -2 22 -8 44 -13 50 -5 5 -9 15 -9 22 0 7 -26 50
-59 95 -32 46 -95 145 -140 220 -160 267 -138 193 64 -217 73 -148 150 -306
170 -350 47 -104 177 -321 238 -396 26 -33 47 -64 47 -69 0 -6 -16 -8 -42 -4
-52 9 -189 10 -322 5 l-99 -5 -30 35 c-164 191 -318 403 -323 446 -5 39 -129
292 -152 309 -9 7 -12 16 -7 24 6 10 3 12 -13 8 -25 -7 -70 19 -97 57 -53 74
-150 188 -219 258 -42 42 -76 80 -76 83 0 4 -30 52 -67 108 -60 90 -79 126
-100 189 -3 9 -8 17 -12 17 -4 0 -7 8 -8 18 -1 11 -24 57 -51 103 -83 140
-121 219 -132 275 -6 30 -15 56 -20 59 -4 3 -11 28 -15 57 -10 72 -38 114 -47
71 -2 -10 -20 83 -41 206 -29 174 -35 227 -26 238 18 20 13 75 -15 172 -13 47
-45 174 -71 281 -62 257 -98 374 -147 477 -40 85 -61 108 -34 37 63 -163 111
-381 190 -866 101 -616 136 -915 161 -1383 8 -154 19 -334 25 -400 16 -193 30
-595 30 -857 0 -380 -22 -975 -45 -1218 -4 -45 -3 -51 6 -30 28 67 58 255 68
440 7 107 16 254 21 325 25 341 32 592 21 820 -18 391 -54 1021 -67 1165 -5
60 -4 63 9 40 7 -14 13 -37 12 -51 -1 -19 4 -26 15 -24 8 1 14 10 12 19 -4 22
27 21 35 -1 4 -10 19 -34 34 -53 15 -19 47 -63 71 -98 76 -111 349 -479 478
-644 69 -88 185 -240 258 -337 73 -97 157 -206 187 -243 30 -37 55 -72 55 -78
0 -6 -26 -10 -64 -10 -60 0 -64 1 -75 28 -7 16 -43 60 -81 97 -54 53 -70 65
-70 49 0 -11 28 -47 65 -84 36 -35 65 -70 65 -77 0 -9 -18 -13 -57 -14 -294
-3 -447 -39 -626 -146 -110 -65 -182 -135 -197 -192 -14 -54 2 -81 22 -35 47
109 105 140 368 193 80 16 204 43 275 60 273 63 505 68 505 11 0 -22 292 -380
489 -600 144 -160 267 -271 411 -369 133 -92 173 -122 378 -288 131 -106 232
-175 232 -159 0 3 -62 58 -137 123 -76 65 -158 138 -181 163 -75 77 -255 366
-325 520 -55 121 -68 161 -44 129 19 -26 55 -33 73 -15 19 20 37 20 74 1 17
-9 30 -13 30 -10 0 2 35 -31 77 -75 42 -44 84 -80 93 -80 8 0 35 -18 59 -40
24 -22 45 -40 47 -40 2 0 43 -39 92 -87 381 -375 591 -552 752 -633 58 -29
180 -129 180 -147 0 -3 8 -15 17 -25 10 -11 18 -39 20 -71 6 -117 43 -221 43
-120 0 23 7 42 19 53 15 12 21 33 24 81 2 35 4 1 5 -76 2 -130 -2 -227 -28
-665 -13 -223 -44 -472 -115 -940 -42 -273 -117 -579 -202 -823 -85 -246 -188
-487 -263 -617 -14 -25 -29 -54 -33 -65 -14 -39 28 24 72 108 23 45 52 100 65
122 155 273 235 478 315 807 79 325 111 531 216 1368 13 99 52 525 87 925 12
146 4 1053 -12 1205 -35 348 -225 1503 -297 1800 -14 58 -56 209 -93 335 -38
127 -90 304 -115 395 -54 193 -66 232 -77 245 -4 5 -8 18 -8 28 0 10 -10 31
-21 45 -18 22 -21 23 -16 7 3 -11 28 -103 56 -205 27 -102 86 -308 130 -458
123 -419 157 -574 210 -957 37 -267 92 -630 106 -709 18 -96 19 -203 3 -256
-14 -42 -28 -53 -28 -21 0 11 -6 26 -13 33 -13 12 -57 166 -57 198 0 21 -69
168 -70 150 -1 -8 -6 -4 -11 10 -6 14 -8 42 -5 63 4 20 2 37 -3 37 -5 0 -12
35 -15 78 -14 174 -87 477 -181 752 -20 58 -72 218 -116 355 -128 397 -221
621 -443 1063 -303 607 -647 1184 -858 1438 -46 54 -224 243 -397 419 -724
736 -742 753 -921 847 -47 25 -141 78 -209 118 -173 100 -380 202 -484 239
-93 33 -97 34 -97 27z m270 -172 c0 -3 -7 -1 -15 6 -8 7 -15 17 -15 22 0 5 7
3 15 -6 8 -8 15 -18 15 -22z m-213 -230 c-3 -3 -12 -4 -19 -1 -8 3 -5 6 6 6
11 1 17 -2 13 -5z m964 -227 c145 -126 318 -299 341 -340 6 -12 2 -13 -28 -7
l-36 8 23 -26 c13 -15 1 -7 -26 18 -28 25 -88 79 -135 119 -47 41 -119 108
-160 150 -41 42 -96 94 -123 116 -33 28 -49 50 -53 73 -12 60 26 39 197 -111z
m2366 -3694 c-4 -3 0 -11 7 -17 8 -6 28 -51 45 -99 30 -87 31 -89 11 -94 -16
-4 -19 -11 -14 -27 10 -34 0 -17 -59 96 -40 77 -52 108 -43 111 8 3 19 0 25
-6 8 -8 11 -8 12 1 1 7 3 17 4 22 1 6 3 12 4 15 0 3 4 5 8 5 3 0 3 -3 0 -7z
m300 -1265 c-3 -8 -6 -5 -6 6 -1 11 2 17 5 13 3 -3 4 -12 1 -19z m-1736 -150
c14 -9 56 -66 93 -128 38 -61 78 -123 90 -138 24 -29 61 -95 169 -302 38 -74
84 -160 101 -190 17 -31 42 -77 56 -104 14 -26 49 -77 78 -114 66 -83 55 -100
-25 -41 -181 135 -371 311 -496 459 -40 47 -117 135 -173 197 -55 62 -142 167
-193 235 l-93 123 28 12 c45 20 332 13 365 -9z m474 -59 c83 -17 160 -33 173
-36 14 -3 46 -40 86 -97 35 -50 78 -107 96 -126 58 -63 100 -117 100 -127 0
-10 17 -30 101 -121 27 -29 55 -67 63 -85 7 -17 28 -48 46 -67 57 -62 188
-228 223 -282 31 -48 121 -155 168 -201 23 -22 24 -26 2 -23 -9 2 -25 14 -36
27 -10 13 -23 24 -27 24 -5 0 -25 16 -47 35 -21 20 -83 71 -138 115 -91 72
-161 131 -285 240 -42 37 -554 549 -693 693 l-60 62 39 0 c22 0 107 -14 189
-31z m1405 -1559 c0 -5 -2 -10 -4 -10 -3 0 -8 5 -11 10 -3 6 -1 10 4 10 6 0
11 -4 11 -10z"/>
<path d="M6940 18250 c0 -5 7 -10 15 -10 8 0 15 5 15 10 0 6 -7 10 -15 10 -8
0 -15 -4 -15 -10z"/>
<path d="M6858 18233 c-10 -2 -18 -9 -18 -15 0 -5 7 -7 16 -4 9 3 20 6 25 6 5
0 9 5 9 10 0 10 -3 11 -32 3z"/>
<path d="M6786 18202 c-3 -5 1 -9 9 -9 8 0 15 4 15 9 0 4 -4 8 -9 8 -6 0 -12
-4 -15 -8z"/>
<path d="M6700 18159 c-211 -119 -337 -223 -669 -558 -379 -381 -418 -426
-883 -1016 -120 -153 -228 -311 -314 -458 -21 -38 -89 -152 -151 -255 -94
-157 -110 -189 -98 -201 21 -22 79 -6 94 25 6 15 14 24 17 22 2 -3 -13 -34
-34 -69 -22 -35 -71 -122 -109 -194 -109 -201 -128 -236 -159 -289 -219 -367
-334 -688 -504 -1406 -60 -254 -159 -772 -188 -985 -23 -165 -24 -185 -11
-185 5 0 9 -12 10 -27 l1 -28 8 30 c5 17 19 84 30 150 12 66 46 228 76 360 29
132 65 296 79 365 123 594 264 1081 418 1450 125 297 243 542 373 772 24 43
44 80 44 84 0 4 10 21 23 38 13 17 38 58 56 90 38 68 104 154 135 176 21 14
21 14 5 -10 -41 -64 -103 -176 -144 -261 -46 -94 -189 -512 -182 -532 5 -17
133 232 183 360 57 145 100 231 246 493 223 400 419 677 739 1045 119 137 126
145 224 231 184 163 366 289 456 314 36 11 36 6 0 -33 -76 -84 -81 -90 -72
-101 13 -16 9 -21 -102 -111 -97 -77 -267 -248 -267 -267 0 -10 16 2 169 124
126 101 278 205 456 313 209 127 271 158 301 151 12 -3 25 -2 28 3 3 4 55 30
116 56 60 27 108 50 107 52 -2 2 -26 -4 -53 -12 -141 -43 -223 -57 -369 -61
-156 -4 -257 -18 -312 -41 -18 -7 -33 -11 -33 -8 0 3 -6 1 -12 -4 -7 -6 -47
-37 -90 -68 -42 -32 -109 -86 -150 -119 -55 -47 -74 -57 -74 -44 0 10 5 18 11
17 5 -1 9 4 7 12 -2 8 3 11 12 8 9 -4 15 -1 13 5 -1 7 5 13 13 13 8 0 14 6 13
12 -3 15 206 213 225 213 6 0 13 8 16 18 4 9 30 31 59 47 32 19 53 39 55 52 3
17 -1 20 -22 16 -30 -6 -30 -6 -16 33 6 18 29 41 58 59 52 33 52 33 101 75 19
17 39 30 43 30 5 0 6 5 3 10 -7 12 55 41 69 33 5 -4 6 -1 2 5 -10 16 -14 15
-76 -19z m-605 -668 c-3 -6 -11 -11 -16 -11 -5 0 -4 6 3 14 14 16 24 13 13 -3z"/>
<path d="M7577 18080 c-6 -22 0 -25 22 -11 7 5 10 14 7 20 -11 17 -23 13 -29
-9z"/>
<path d="M9511 18023 c-9 -10 -7 -13 11 -13 13 0 34 -3 47 -7 21 -5 22 -4 14
12 -12 22 -55 26 -72 8z"/>
<path d="M6922 18009 c-9 -4 -28 -5 -42 -2 -20 4 -33 -4 -62 -37 -21 -22 -53
-47 -72 -55 -19 -8 -38 -20 -42 -26 -10 -16 106 -4 206 21 41 10 142 24 223
31 127 11 150 11 157 -1 6 -9 4 -18 -3 -23 -15 -11 0 -6 36 12 15 8 27 18 27
22 0 5 8 6 18 2 9 -3 14 -3 10 1 -7 8 -53 21 -138 37 -70 14 -296 26 -318 18z"/>
<path d="M7202 17665 c-49 -38 -181 -194 -282 -330 -193 -261 -326 -584 -425
-1034 -27 -121 -30 -151 -17 -151 5 0 32 89 61 198 69 253 106 351 229 602
119 243 184 341 485 738 18 23 -8 12 -51 -23z"/>
<path d="M7499 17560 c-3 -19 -5 -25 -27 -74 -12 -27 -34 -88 -48 -135 -15
-47 -33 -105 -40 -129 -17 -53 -17 -60 0 -77 11 -11 20 9 59 128 58 184 67
223 53 238 -8 9 -8 10 2 5 8 -5 12 2 12 23 0 29 -8 44 -11 21z"/>
<path d="M6677 17368 c-9 -18 -27 -49 -39 -69 -13 -20 -38 -63 -57 -95 -19
-33 -85 -140 -146 -239 -62 -99 -142 -234 -178 -300 -108 -195 -247 -536 -332
-810 -20 -66 -43 -139 -51 -163 -8 -23 -14 -53 -14 -65 0 -13 -4 -27 -9 -33
-5 -5 -12 -25 -16 -44 -6 -28 -5 -33 5 -23 7 6 14 23 15 37 2 14 10 32 18 41
9 8 19 25 22 38 27 87 145 421 181 508 139 342 349 760 545 1084 40 66 89 165
81 165 -5 0 -16 -15 -25 -32z"/>
<path d="M13609 17037 c28 -37 83 -118 122 -180 40 -61 105 -164 147 -227 140
-214 195 -312 392 -695 120 -234 163 -309 240 -425 94 -143 182 -347 308 -715
24 -71 28 -52 7 37 -24 106 -90 287 -165 454 -39 87 -86 213 -105 279 -39 141
-137 464 -167 550 -26 73 -128 288 -135 281 -8 -8 46 -172 157 -476 125 -344
153 -426 148 -441 -2 -6 -25 21 -51 60 -44 66 -67 112 -158 311 -84 185 -234
473 -291 560 -35 52 -92 142 -128 200 -120 196 -218 335 -295 415 l-77 80 51
-68z"/>
<path d="M14625 15825 c10 -45 46 -125 56 -125 12 0 11 27 -1 35 -5 3 -10 15
-10 26 0 11 -12 37 -26 57 l-26 37 7 -30z"/>
<path d="M8667 15685 c3 -33 7 -62 9 -64 8 -9 2 85 -6 104 -5 12 -6 -4 -3 -40z"/>
<path d="M4556 15654 c-4 -10 -1 -14 6 -12 15 5 23 28 10 28 -5 0 -13 -7 -16
-16z"/>
<path d="M14696 15645 c4 -8 11 -15 16 -15 6 0 5 6 -2 15 -7 8 -14 15 -16 15
-2 0 -1 -7 2 -15z"/>
<path d="M15920 15621 c0 -6 4 -13 10 -16 6 -3 7 1 4 9 -7 18 -14 21 -14 7z"/>
<path d="M8680 15596 c0 -10 7 -66 15 -125 8 -58 19 -140 25 -181 51 -384 78
-543 136 -800 37 -165 62 -275 93 -417 11 -49 24 -108 30 -133 85 -359 184
-862 265 -1340 25 -146 58 -335 75 -420 16 -85 46 -247 67 -360 43 -243 75
-374 144 -593 152 -482 209 -616 347 -823 43 -65 92 -141 108 -169 63 -110
201 -308 237 -340 38 -35 81 -45 122 -29 29 11 17 22 -40 39 -66 19 -117 66
-191 176 -72 106 -239 403 -264 469 -29 73 -27 171 6 410 49 356 98 930 81
947 -3 4 -6 -9 -6 -28 0 -34 -27 -246 -55 -434 -8 -55 -19 -156 -25 -225 -14
-170 -39 -369 -50 -405 -6 -16 -11 -42 -12 -57 -1 -16 -4 -28 -6 -28 -2 0 -11
19 -21 43 -12 26 -21 81 -25 147 -10 150 -29 246 -82 405 -70 215 -78 243
-169 655 -47 212 -92 414 -101 450 -9 36 -18 82 -21 103 -4 28 -11 39 -28 43
-30 8 -46 -2 -39 -24 5 -14 4 -15 -5 -2 -9 15 -39 162 -75 370 -18 103 -60
334 -82 450 -9 47 -38 177 -64 290 -165 704 -208 906 -270 1290 -6 36 -29 178
-52 315 -22 138 -43 268 -45 290 -5 42 -23 74 -23 41z"/>
<path d="M14730 15576 c0 -2 18 -37 41 -77 73 -133 207 -413 257 -539 77 -193
244 -695 318 -953 210 -736 401 -1621 464 -2142 35 -293 43 -349 50 -370 7
-18 9 -17 16 10 22 84 -114 975 -225 1470 -51 229 -216 882 -275 1085 -164
573 -417 1225 -523 1353 -20 23 -41 53 -47 67 -21 46 -51 90 -63 95 -7 2 -13
3 -13 1z"/>
<path d="M6006 15278 c-33 -153 -45 -538 -27 -883 7 -126 13 -302 14 -390 2
-143 0 -167 -21 -225 -12 -36 -33 -128 -47 -205 -14 -77 -38 -201 -55 -275
-27 -122 -44 -188 -100 -390 -80 -286 -163 -631 -180 -748 -36 -243 -49 -537
-27 -621 15 -58 13 -71 -28 -251 -9 -41 -18 -80 -19 -86 -3 -20 -127 -194
-207 -293 -130 -161 -128 -158 -139 -141 -6 8 -8 25 -5 38 3 12 8 33 11 47 5
19 2 25 -10 25 -9 0 -16 6 -16 14 0 7 -6 19 -14 25 -9 8 -15 51 -20 139 -4 70
-11 131 -17 137 -5 5 -9 28 -9 52 0 28 -4 43 -12 43 -9 0 -8 4 2 10 9 6 10 10
3 10 -19 0 -10 442 16 725 30 337 67 667 101 895 41 274 57 409 75 610 9 96
18 182 20 190 2 8 7 35 10 60 3 25 11 70 19 100 8 30 21 83 30 117 9 35 20 71
25 80 18 33 97 329 131 492 23 106 23 111 11 111 -11 0 -38 -74 -96 -265 -110
-355 -188 -749 -274 -1375 -77 -552 -102 -803 -121 -1190 -5 -118 -15 -303
-20 -410 -6 -107 -15 -404 -20 -660 -5 -256 -14 -490 -20 -521 -10 -56 -1
-138 19 -164 8 -10 24 -165 26 -260 1 -27 2 -63 4 -80 3 -30 3 -30 10 -5 5 18
10 1 15 -60 4 -47 11 -105 16 -129 4 -24 4 -71 -1 -105 -7 -52 -3 -81 26 -212
35 -154 45 -241 24 -229 -5 4 13 -40 42 -97 66 -132 112 -251 144 -375 49
-190 107 -326 161 -378 19 -19 38 -34 41 -34 4 1 22 -27 40 -62 50 -95 120
-248 111 -243 -4 3 -8 2 -8 -1 0 -15 104 -214 110 -210 3 2 6 -6 6 -18 -1 -13
5 -22 14 -22 18 0 60 -42 60 -60 0 -8 -6 -15 -13 -15 -19 0 -15 -43 6 -64 9
-10 15 -21 12 -26 -3 -5 8 -18 23 -29 16 -11 29 -26 29 -34 0 -10 -49 9 -151
60 -83 40 -156 77 -162 81 -6 4 -23 16 -38 26 -15 10 -38 20 -51 22 -13 1 -37
11 -52 21 -39 26 -83 45 -117 49 -48 6 -224 106 -287 162 -32 30 -114 115
-181 190 -68 75 -131 146 -141 157 -79 83 -229 272 -291 365 -43 64 -127 217
-194 354 -65 132 -133 270 -151 306 -27 55 -31 59 -26 30 3 -19 23 -96 44
-170 21 -74 48 -171 60 -215 27 -98 82 -246 126 -340 19 -38 47 -99 64 -135
16 -36 50 -103 75 -149 25 -46 43 -88 39 -94 -3 -5 -2 -7 4 -4 10 7 38 -42 29
-51 -3 -3 -9 4 -13 14 -5 10 -15 20 -25 20 -12 1 -15 -5 -13 -25 4 -25 4 -25
-9 4 -26 59 -30 79 -13 72 11 -4 14 -2 11 7 -3 8 -13 12 -22 10 -12 -3 -27 11
-47 43 -27 43 -30 46 -33 24 -7 -43 8 -90 63 -199 73 -145 116 -207 140 -205
11 1 22 -2 25 -6 3 -5 32 -31 66 -59 66 -55 100 -110 103 -170 1 -7 6 -10 11
-7 8 5 12 -5 9 -31 0 -3 12 -15 26 -26 19 -15 23 -23 14 -28 -8 -6 -6 -11 8
-19 23 -11 36 -48 22 -57 -5 -3 -9 0 -9 7 0 9 -3 10 -11 2 -11 -11 7 -53 24
-53 4 0 4 -12 1 -27 -6 -21 -4 -25 8 -20 13 4 14 1 4 -19 -6 -13 -13 -24 -16
-24 -7 0 -40 60 -40 73 0 6 -6 18 -14 26 -23 26 -53 85 -60 118 -8 34 -119
163 -141 163 -29 0 -25 -22 15 -81 35 -50 84 -132 148 -244 14 -24 71 -144 72
-150 1 -6 4 -16 35 -105 89 -255 160 -512 230 -825 59 -262 78 -330 153 -540
125 -350 145 -399 153 -377 13 34 32 465 26 567 -8 118 -15 181 -28 229 -9 32
-6 60 4 45 14 -19 65 -138 101 -235 24 -66 72 -189 106 -274 119 -295 156
-422 216 -734 19 -100 39 -189 44 -198 5 -10 7 -25 3 -35 -3 -10 -3 -15 1 -11
11 9 35 -14 29 -27 -2 -5 2 -1 11 10 8 11 19 25 23 30 69 86 291 541 279 571
-3 8 -2 13 3 10 5 -3 14 8 20 26 15 42 14 45 -5 22 -8 -10 -13 -13 -9 -6 3 6
2 12 -4 12 -25 0 -46 55 -46 122 0 37 3 68 7 68 5 0 8 -21 8 -47 0 -25 3 -44
6 -40 3 3 9 78 11 166 5 137 4 161 -9 161 -17 0 -20 32 -4 42 6 5 1 8 -11 8
-18 0 -23 -6 -24 -27 -1 -21 -3 -23 -6 -8 -10 46 -14 51 -24 32 -12 -21 -31
-13 -22 10 4 11 3 14 -5 9 -9 -5 -12 7 -12 43 0 29 5 51 11 51 5 0 7 6 4 13
-4 6 0 4 8 -5 8 -10 16 -18 19 -18 2 0 4 49 4 110 -1 60 -5 110 -9 110 -4 0
-2 10 4 23 7 12 12 23 11 25 -6 8 -1 52 6 52 4 0 6 -18 4 -40 -3 -25 0 -40 7
-40 11 0 15 19 12 56 -1 22 24 29 47 11 9 -7 12 -2 13 19 l1 29 9 -30 c5 -16
11 -64 14 -105 3 -41 10 -100 15 -130 34 -198 35 -411 3 -685 -22 -184 -25
-820 -5 -938 7 -42 15 -99 17 -125 6 -72 23 -184 34 -217 5 -16 12 -59 15 -95
8 -86 24 -140 41 -140 15 0 20 22 31 145 4 44 10 107 14 140 l7 60 2 -75 c2
-41 5 -69 8 -62 2 6 9 12 14 12 6 0 7 -4 4 -10 -3 -5 5 -12 19 -16 19 -4 26
-14 29 -37 4 -30 4 -30 5 6 1 20 -2 37 -6 37 -5 0 -7 21 -4 47 5 56 12 70 12
25 0 -19 5 -32 13 -32 7 0 24 -8 37 -17 14 -10 29 -19 35 -20 5 -2 51 -17 100
-34 74 -26 95 -30 118 -21 25 10 27 9 27 -18 0 -24 4 -28 20 -25 29 6 60 -29
60 -65 0 -53 20 -32 21 23 1 36 4 21 11 -48 6 -71 5 -111 -4 -138 -9 -31 -9
-43 4 -70 l16 -32 10 25 c11 28 33 108 58 213 18 77 18 78 28 132 4 22 12 62
18 88 7 35 7 55 -2 77 -9 22 -9 36 1 65 11 30 15 33 21 18 5 -11 6 -8 1 7 -15
53 1 291 22 334 21 42 21 216 0 216 -14 0 -20 37 -17 109 2 31 22 53 23 25 0
-14 4 -12 14 11 13 28 14 26 9 -35 -5 -55 6 -446 23 -880 9 -221 -34 -796 -77
-1036 -24 -131 -59 -270 -101 -398 -17 -50 -32 -109 -35 -131 -6 -49 -99 -385
-164 -595 -27 -85 -72 -233 -101 -329 -28 -96 -62 -203 -75 -239 -14 -35 -23
-67 -20 -69 2 -2 22 24 45 59 23 35 73 91 111 126 42 38 110 119 171 203 58
80 105 136 111 133 6 -4 8 -3 5 3 -4 6 1 19 9 29 9 10 13 12 9 4 -4 -8 8 1 26
19 23 25 42 36 68 38 39 3 50 12 147 139 100 129 110 137 65 50 -121 -230
-397 -592 -684 -895 -103 -110 -206 -251 -362 -499 -32 -51 -60 -90 -63 -88
-6 6 48 119 61 127 5 3 8 8 6 10 -1 2 10 24 26 48 32 51 60 115 47 107 -5 -3
-35 -40 -68 -83 -225 -297 -349 -430 -545 -580 -58 -45 -111 -89 -119 -97 -11
-14 144 -16 1595 -16 l1607 0 -7 27 c-9 38 -10 38 -46 12 l-32 -23 -36 21
c-46 26 -108 145 -93 178 16 36 113 135 156 160 35 20 47 23 80 15 57 -13 64
-25 35 -57 -32 -35 -89 -123 -89 -137 0 -6 4 -5 9 2 12 20 21 -31 9 -52 -14
-26 0 -55 44 -87 44 -31 88 -39 88 -14 0 8 -18 29 -40 46 -22 18 -40 38 -40
45 0 13 47 92 104 176 32 47 77 55 222 40 107 -11 177 -35 182 -62 4 -25 -94
-180 -151 -238 l-51 -52 258 0 257 0 -7 23 c-3 12 -36 80 -71 151 -36 70 -61
131 -56 136 4 4 37 13 73 19 63 12 97 22 225 63 92 30 192 93 280 177 44 42
103 92 130 111 45 31 57 35 115 35 58 0 67 -3 82 -25 10 -14 18 -32 18 -40 0
-8 -21 -62 -45 -119 -25 -58 -47 -117 -49 -133 -4 -43 -97 -133 -150 -147 -36
-9 -62 -6 -211 30 -93 23 -186 48 -206 56 -28 12 -41 12 -58 4 -44 -24 -11
-51 94 -76 119 -28 313 -95 319 -110 5 -14 -32 -35 -171 -96 -29 -12 -60 -31
-70 -41 -16 -17 16 -18 992 -18 l1007 0 -7 22 c-4 13 -9 89 -12 171 -9 244 28
554 90 753 19 60 38 134 42 164 10 74 89 369 121 450 20 51 38 76 81 115 98
88 135 127 257 272 65 78 162 182 215 231 l97 89 12 79 c46 275 83 396 189
613 46 95 79 175 84 206 4 28 10 60 14 72 20 62 -80 -13 -210 -157 -157 -175
-361 -479 -489 -730 -77 -151 -146 -305 -146 -327 0 -18 -17 -16 -24 3 -9 23
-8 26 6 18 8 -5 9 -2 3 12 -10 24 -8 66 4 73 4 3 11 25 14 49 3 24 12 51 20
60 13 15 24 46 33 91 1 7 7 18 13 24 6 6 11 20 11 31 0 20 18 73 69 206 22 58
27 80 13 64 -5 -5 -21 -45 -37 -89 -15 -44 -32 -85 -37 -91 -8 -11 -99 -227
-143 -339 -13 -33 -29 -88 -35 -122 -11 -55 -10 -67 4 -98 10 -19 18 -55 20
-80 4 -70 -12 -186 -28 -204 -8 -9 -24 -50 -36 -91 -26 -86 -60 -130 -101
-130 -25 0 -30 5 -40 43 -16 61 -5 291 20 402 57 255 192 579 376 898 83 146
254 392 491 709 200 265 307 422 320 465 7 24 16 107 19 186 4 78 14 169 22
202 20 78 117 281 177 369 32 47 44 75 40 88 -5 17 -3 18 15 9 12 -7 21 -13
21 -14 0 -17 -89 -217 -150 -337 -25 -48 -50 -168 -50 -235 0 -53 31 -169 51
-190 6 -6 19 0 37 18 15 15 54 47 88 72 34 24 100 87 147 138 47 52 182 182
299 290 260 240 654 645 765 787 45 58 128 159 184 225 177 210 295 391 374
576 65 149 203 579 259 804 30 121 71 276 91 345 20 69 41 140 46 158 6 18 7
37 3 44 -4 7 -3 8 4 4 7 -4 12 -1 12 9 0 12 -4 13 -18 6 -32 -17 -44 3 -52 83
-5 53 -3 94 6 134 15 63 17 78 8 70 -15 -15 -82 -239 -139 -463 -94 -369 -119
-455 -165 -560 -15 -36 -19 -53 -12 -59 3 -4 5 -27 3 -51 -1 -25 2 -45 7 -45
12 0 23 -40 16 -52 -4 -5 -8 -32 -9 -59 -2 -27 -7 -59 -10 -69 -4 -11 -3 -20
2 -20 5 0 9 -9 10 -20 1 -11 -2 -18 -6 -16 -8 5 -31 -36 -31 -55 0 -20 -130
-269 -202 -387 -90 -149 -311 -463 -335 -478 -16 -10 -18 -7 -17 28 1 21 8 46
16 56 19 21 109 212 101 212 -3 0 1 8 9 18 26 31 58 93 58 113 0 11 6 22 14
25 8 3 13 14 11 25 -2 10 0 19 6 19 5 0 9 7 9 15 0 8 5 15 11 15 5 0 7 5 4 11
-4 5 -1 18 7 27 8 9 20 32 28 50 7 17 17 32 22 32 5 0 7 4 4 9 -3 4 4 32 15
62 12 30 22 84 23 123 3 69 3 69 -15 45 -20 -26 -143 -242 -344 -604 -70 -126
-164 -286 -210 -355 -98 -149 -268 -362 -382 -481 -78 -80 -97 -109 -73 -109
5 0 7 -6 4 -13 -3 -9 5 -14 26 -15 16 -1 37 -3 46 -4 19 -2 -41 -61 -196 -193
-58 -49 -185 -169 -283 -267 -98 -98 -184 -178 -192 -178 -8 0 -15 -5 -15 -12
0 -6 -2 -9 -5 -7 -2 3 9 50 25 104 16 55 30 108 30 118 0 10 5 15 10 12 6 -3
10 1 10 9 0 9 4 16 9 16 5 0 7 -10 5 -22 -6 -29 -1 -22 67 92 149 247 194 386
228 695 23 200 100 638 157 880 19 83 50 220 70 305 19 85 45 189 58 230 14
45 28 128 36 210 6 74 23 209 36 300 13 91 28 226 34 300 7 74 14 138 16 141
2 3 4 71 5 150 1 79 4 147 6 151 6 12 68 -12 84 -33 16 -21 16 -21 32 20 10
23 28 59 42 81 39 61 35 71 -22 53 -72 -24 -233 -23 -312 2 -48 14 -66 16 -69
7 -2 -7 -7 -10 -11 -7 -24 14 -89 -103 -141 -254 -18 -52 -69 -169 -114 -260
-44 -91 -99 -206 -120 -255 -66 -149 -307 -538 -444 -716 -84 -109 -537 -560
-762 -759 -169 -148 -480 -402 -645 -527 -101 -77 -270 -190 -261 -175 4 6 3
11 -3 11 -5 0 -13 -10 -17 -22 -8 -22 -8 -22 -13 5 l-6 29 -45 -35 c-27 -21
-46 -43 -47 -57 -2 -26 -22 -52 -34 -44 -5 3 -9 0 -9 -6 0 -6 -12 -16 -27 -23
-16 -6 -30 -14 -33 -18 -17 -20 -114 -78 -123 -72 -5 3 -7 2 -4 -3 3 -6 -62
-48 -145 -94 -82 -47 -202 -115 -267 -153 -215 -125 -256 -142 -341 -142 -67
0 -92 6 -245 63 -182 68 -399 159 -695 295 -165 75 -341 150 -740 317 -69 29
-163 70 -210 91 -47 21 -173 77 -280 124 -358 158 -755 374 -927 504 -149 113
-339 323 -468 521 -61 93 -205 339 -267 458 l-47 89 -76 32 c-74 31 -126 46
-246 70 -44 9 -76 27 -145 77 -49 36 -148 102 -221 147 -233 143 -322 204
-351 241 -11 14 -23 22 -28 18 -5 -4 -6 -3 -2 2 4 5 2 16 -4 23 -10 12 -4 14
38 12 28 -1 54 0 60 3 5 3 17 4 27 2 12 -1 17 2 14 11 -14 36 200 -55 378
-160 44 -27 98 -58 120 -70 86 -47 122 -69 183 -111 35 -24 69 -44 76 -44 7 0
21 -7 32 -15 10 -8 27 -15 37 -15 9 0 17 -4 17 -10 0 -5 5 -10 11 -10 19 0
137 -61 154 -80 12 -14 13 -20 4 -26 -7 -4 -10 -3 -6 3 4 6 0 16 -8 23 -13 11
-14 10 -9 -4 4 -11 1 -16 -10 -16 -13 0 -14 -4 -4 -25 13 -29 55 -57 113 -75
22 -7 69 -29 104 -48 56 -31 76 -36 148 -40 82 -4 213 19 213 38 0 4 -45 10
-100 14 -123 9 -194 27 -279 71 -137 73 -211 146 -317 318 -57 91 -234 433
-289 557 -41 92 -104 227 -162 350 -28 58 -63 132 -78 165 -16 33 -52 103 -81
155 -33 60 -55 114 -60 145 -6 45 -56 161 -102 240 -10 17 -29 50 -44 75 -15
25 -34 74 -43 110 -9 36 -52 135 -95 220 -52 103 -83 176 -91 218 -15 79 -7
190 25 352 33 171 63 374 81 565 13 140 31 283 77 613 6 45 15 82 20 82 4 0 8
9 8 19 0 10 6 21 14 24 7 3 16 24 19 46 3 23 18 62 34 87 15 26 36 61 46 78
37 62 150 165 222 202 38 20 122 67 185 104 196 115 444 230 460 214 4 -5 47
-85 95 -179 320 -620 764 -1209 1080 -1432 170 -120 296 -170 159 -63 -134
104 -274 234 -293 271 -22 42 -120 372 -186 629 -51 195 -94 488 -78 523 20
40 22 56 12 89 -10 37 -21 148 -14 148 3 0 11 -15 20 -32 8 -18 19 -40 24 -48
5 -8 45 -80 89 -160 44 -80 92 -167 108 -195 102 -186 362 -534 483 -649 56
-53 33 -18 -77 117 -172 211 -232 294 -364 502 -70 112 -111 186 -104 192 9
10 46 -28 74 -77 31 -53 99 -149 199 -280 284 -370 526 -642 668 -750 28 -21
59 -46 70 -56 69 -65 214 -165 328 -228 58 -33 161 -77 177 -76 13 1 -36 30
-51 30 -10 0 -19 4 -21 9 -1 5 -9 11 -17 13 -16 3 -42 23 -100 76 -20 18 -56
47 -81 64 -174 122 -418 343 -610 554 -315 344 -396 456 -684 947 -172 293
-227 402 -274 547 -17 52 -40 122 -51 155 l-21 60 5 -140 c7 -167 30 -461 46
-565 17 -115 87 -466 110 -547 11 -39 33 -100 48 -135 26 -57 62 -165 166
-503 21 -66 48 -144 61 -175 l24 -55 -102 109 c-214 228 -347 400 -561 727
-111 169 -171 277 -255 456 -77 165 -81 178 -50 187 13 3 106 27 208 52 102
25 188 51 192 57 15 24 -16 32 -120 32 -114 -1 -246 -29 -308 -66 -42 -25 -52
-24 -60 9 -4 15 -23 58 -42 97 -52 105 -119 283 -146 392 -57 226 -241 1106
-255 1218 -12 101 -35 372 -51 605 -13 177 -15 689 -4 923 6 143 2 194 -10
135z m171 -2540 c-3 -8 -6 -5 -6 6 -1 11 2 17 5 13 3 -3 4 -12 1 -19z m-238
-5 c-1 -10 -1 -25 0 -33 1 -13 2 -13 11 0 8 12 10 10 12 -10 1 -14 2 -34 3
-45 1 -11 -4 -30 -11 -42 -15 -25 -12 -99 5 -116 6 -6 12 -22 12 -36 1 -22 3
-20 10 9 6 28 7 24 3 -18 -3 -29 -8 -60 -11 -69 -4 -10 -2 -14 5 -9 7 4 9 -2
4 -21 -4 -16 -7 -42 -7 -59 1 -21 -3 -30 -12 -27 -7 3 -16 -12 -23 -39 -15
-59 -30 -97 -51 -134 -10 -17 -16 -34 -12 -38 4 -4 0 -4 -9 -1 -13 5 -17 -5
-23 -52 -4 -32 -8 -85 -9 -118 -4 -74 -23 -170 -43 -208 -12 -24 -31 -209 -20
-196 3 2 32 84 66 182 76 217 142 373 229 532 35 66 68 125 73 131 5 6 10 23
11 37 1 14 5 24 9 21 13 -8 22 39 20 109 -1 45 2 66 9 62 6 -4 10 7 10 29 0
20 4 36 9 36 9 0 23 -59 56 -230 9 -47 27 -118 41 -159 29 -85 113 -267 144
-311 26 -36 21 -46 -27 -55 -134 -25 -404 -205 -683 -454 -52 -47 -105 -94
-117 -104 l-22 -20 10 37 c5 20 23 107 39 193 16 87 45 223 65 303 31 126 52
221 132 595 8 39 30 130 49 202 19 73 34 135 34 138 0 3 3 5 6 5 3 0 4 -8 3
-17z m271 -103 c0 -5 -5 -10 -11 -10 -5 0 -7 5 -4 10 3 6 8 10 11 10 2 0 4 -4
4 -10z m-510 -632 c-12 -62 -25 -117 -28 -123 -5 -9 -9 -24 -14 -62 -1 -7 -5
-10 -10 -7 -4 3 -3 15 3 26 8 16 8 22 -2 29 -10 6 -10 20 -1 72 7 35 12 80 12
98 0 43 16 70 29 51 6 -10 10 -7 15 13 4 15 9 25 13 22 3 -3 -5 -57 -17 -119z
m-211 -998 c-46 -219 -64 -366 -94 -755 -21 -271 -25 -303 -45 -327 l-16 -20
-16 23 c-32 50 -97 535 -98 730 l0 96 142 177 c77 97 142 175 144 173 2 -1 -6
-45 -17 -97z m-727 -3140 c55 -119 59 -126 100 -189 20 -30 34 -60 31 -65 -3
-5 -12 -1 -19 9 -11 15 -16 16 -28 5 -13 -10 -18 -9 -31 4 -18 18 -29 21 -20
6 3 -5 2 -10 -3 -10 -6 0 -12 7 -16 15 -3 9 -25 24 -50 34 -24 11 -47 24 -50
29 -10 16 -34 213 -31 254 2 20 6 42 11 49 12 20 61 -45 106 -141z m1218 -300
c0 -5 -4 -10 -9 -10 -6 0 -13 5 -16 10 -3 6 1 10 9 10 9 0 16 -4 16 -10z m-28
-135 c51 -58 71 -105 58 -139 -5 -15 -15 -24 -21 -21 -6 4 -8 14 -5 22 3 8 2
11 -3 8 -5 -3 -13 0 -17 6 -4 8 -3 9 4 5 7 -4 12 0 13 11 0 11 3 13 6 5 2 -6
8 -10 13 -7 12 8 -20 67 -33 62 -7 -2 -24 14 -39 37 -47 70 -34 76 24 11z
m-28 -31 c9 -23 8 -24 -11 -24 -15 0 -16 2 -3 10 10 6 11 10 3 10 -7 0 -13 5
-13 10 0 16 17 12 24 -6z m-4 -64 c0 -5 7 -10 15 -10 8 0 15 -5 15 -10 0 -7
-6 -7 -19 0 -24 12 -36 30 -22 30 6 0 11 -4 11 -10z m7955 -315 c0 -170 -6
-437 -13 -591 -11 -241 -16 -288 -32 -320 -11 -22 -19 -32 -20 -23 0 9 -7 30
-16 48 -9 18 -21 67 -28 109 -13 93 -12 389 3 527 6 55 14 196 18 314 6 192 8
216 25 233 11 11 29 18 41 16 l22 -3 0 -310z m-9044 212 c-10 -9 -11 -8 -5 6
3 10 9 15 12 12 3 -3 0 -11 -7 -18z m1774 -920 c61 -93 117 -189 260 -447 33
-58 29 -60 -10 -5 -13 19 -13 19 -8 -2 3 -13 1 -23 -4 -23 -5 0 -10 -21 -12
-47 -3 -55 -8 -66 -27 -59 -10 4 -14 -2 -14 -19 0 -13 -7 -28 -16 -33 -15 -8
-15 -12 0 -40 14 -27 14 -31 1 -26 -10 4 -15 0 -15 -11 0 -9 5 -13 10 -10 9 6
14 -8 11 -27 0 -5 3 -8 8 -8 6 0 8 -8 6 -19 -2 -10 2 -30 9 -43 7 -13 11 -34
9 -46 -1 -12 2 -22 7 -22 6 0 10 -9 10 -20 0 -11 5 -20 11 -20 8 0 7 -6 -2
-17 -10 -12 -10 -14 -1 -9 7 4 14 1 18 -8 3 -8 14 -13 26 -11 20 4 20 4 2 -16
-16 -17 -16 -22 -4 -29 13 -8 13 -10 0 -10 -10 0 -11 -3 -4 -8 6 -4 10 -17 9
-29 -1 -13 2 -23 7 -23 4 0 8 -16 8 -35 0 -19 -5 -35 -11 -35 -5 0 -7 5 -4 10
3 6 1 10 -5 10 -18 0 -6 -25 14 -28 15 -3 17 3 16 40 -3 66 -1 80 10 73 6 -4
8 -11 5 -16 -4 -5 -1 -9 4 -9 6 0 11 -9 11 -20 0 -11 -4 -20 -10 -20 -13 0
-13 -36 1 -62 6 -12 7 -18 1 -14 -14 9 -22 -17 -24 -82 l-1 -57 -7 50 c-4 28
-8 44 -8 38 -4 -32 -58 -6 -79 37 -12 25 -12 25 -7 -5 l5 -30 -15 33 c-18 37
-33 41 -39 10 -3 -16 -5 -13 -6 10 -1 30 -2 32 -17 18 -19 -20 -22 -20 -40 -2
-12 12 -12 20 -2 42 10 22 10 28 0 32 -7 2 -9 8 -6 13 8 14 35 -10 27 -25 -4
-7 -3 -8 4 -1 17 16 26 55 13 55 -8 0 -9 10 -5 31 7 31 7 32 -24 26 -19 -4
-31 -2 -31 4 0 6 6 7 13 3 9 -6 9 -4 1 7 -6 8 -12 33 -13 56 -2 54 -42 129
-67 126 -10 -1 -22 4 -26 10 -5 8 -8 5 -8 -7 0 -11 -3 -17 -6 -13 -3 3 -7 65
-8 139 -2 73 -8 145 -14 160 -6 15 -9 42 -7 60 15 137 16 206 1 320 -23 185
-26 250 -13 245 7 -2 44 -51 82 -110z m-554 -181 c5 -6 9 -14 9 -20 0 -5 -7
-1 -15 10 -8 10 -14 30 -13 44 l1 25 4 -25 c3 -14 9 -29 14 -34z m-34 -143
c-3 -10 -5 -2 -5 17 0 19 2 27 5 18 2 -10 2 -26 0 -35z m41 -15 c-12 -24 -21
-54 -20 -68 l2 -25 -14 25 c-18 29 -20 44 -6 35 6 -3 15 6 21 22 10 27 28 53
35 53 3 0 -6 -19 -18 -42z m-41 -190 c-3 -7 -5 -2 -5 12 0 14 2 19 5 13 2 -7
2 -19 0 -25z m6804 5 c-11 -23 -26 -153 -16 -153 4 0 15 10 26 23 l18 22 2
-55 c1 -30 1 -66 0 -80 -1 -14 6 -44 15 -65 15 -33 18 -78 19 -265 1 -124 5
-331 10 -460 7 -232 7 -235 -15 -262 -12 -16 -26 -28 -32 -28 -6 0 -129 -58
-272 -129 -144 -71 -313 -148 -376 -171 -63 -24 -128 -48 -145 -55 -27 -12
-132 -51 -505 -187 -74 -27 -198 -66 -276 -87 -77 -21 -203 -62 -279 -91 -125
-47 -242 -79 -287 -80 -10 0 -18 7 -18 15 0 9 8 18 18 21 9 3 25 10 34 15 10
5 26 9 36 9 9 0 28 7 40 16 12 8 30 14 40 12 28 -4 70 28 92 72 11 21 33 46
49 56 16 9 27 23 25 29 -8 20 42 71 190 195 170 143 618 565 789 745 68 72
168 182 221 245 54 63 189 205 301 315 194 192 203 202 220 260 17 60 60 135
77 135 5 0 5 -7 -1 -17z m59 -21 c-1 -15 -7 -40 -14 -57 -10 -25 -13 -26 -19
-12 -4 12 -3 16 4 11 7 -4 10 4 9 22 -4 52 0 75 10 69 6 -3 10 -18 10 -33z
m220 -61 c0 -21 6 -61 14 -87 8 -27 21 -70 28 -96 7 -30 15 -43 20 -35 4 7 8
-38 8 -99 0 -90 3 -113 15 -118 8 -3 15 -11 15 -17 0 -7 -3 -9 -7 -6 -3 4 -12
-1 -20 -11 -8 -9 -11 -11 -7 -3 5 9 3 12 -4 7 -7 -4 -12 -22 -13 -39 l-1 -32
-16 35 -16 35 -7 -50 c-4 -27 -8 -77 -8 -110 -1 -33 -7 -91 -15 -128 -8 -38
-11 -78 -7 -90 9 -25 -8 -65 -29 -67 -8 0 -34 -2 -57 -4 -35 -3 -43 -1 -49 16
-8 26 4 321 16 408 5 36 14 101 20 145 19 135 42 260 51 270 5 5 9 20 9 33 0
13 4 20 10 17 6 -3 10 -2 10 4 0 20 20 61 30 61 5 0 10 -17 10 -39z m-6973 -3
c-3 -7 -5 -2 -5 12 0 14 2 19 5 13 2 -7 2 -19 0 -25z m33 22 c0 -5 -2 -10 -4
-10 -3 0 -8 5 -11 10 -3 6 -1 10 4 10 6 0 11 -4 11 -10z m697 -12 c-3 -8 -6
-5 -6 6 -1 11 2 17 5 13 3 -3 4 -12 1 -19z m-707 -123 c0 -8 -3 -16 -7 -18 -5
-3 -8 5 -8 18 0 13 3 21 8 18 4 -2 7 -10 7 -18z m1203 -27 c15 -7 25 -18 23
-25 -3 -7 1 -10 9 -7 8 3 23 -3 35 -14 l21 -20 -32 4 c-19 2 -36 -1 -41 -8
-10 -16 -42 21 -58 66 -10 30 -11 30 43 4z m162 -97 c-2 -4 1 -8 8 -8 7 0 54
-23 105 -52 119 -68 461 -231 482 -231 6 0 10 -4 10 -9 0 -5 13 -11 29 -14 16
-3 35 -12 43 -20 8 -8 24 -18 36 -21 13 -4 22 -16 22 -27 0 -13 7 -20 23 -21
12 0 28 -2 36 -2 8 -1 17 -8 19 -16 3 -8 10 -19 16 -23 6 -5 -11 -6 -37 -4
-30 3 -53 11 -61 22 -7 10 -25 18 -40 18 -16 0 -32 7 -39 18 -7 11 -21 19 -31
19 -28 0 -86 22 -86 33 0 5 -7 6 -16 3 -8 -3 -30 2 -47 11 -18 10 -36 18 -42
19 -27 4 -55 17 -55 25 0 5 -11 9 -25 9 -14 0 -33 8 -44 19 -10 10 -31 21 -46
25 -16 4 -41 16 -56 27 -15 10 -32 19 -37 19 -6 0 -17 8 -24 18 -7 10 -38 34
-68 54 -72 47 -120 104 -103 121 7 8 34 -4 28 -12z m-605 -102 c0 -19 -26 -8
-27 12 -2 17 1 18 13 9 8 -7 14 -16 14 -21z m143 -242 c-7 -11 -23 12 -23 32
0 11 4 9 14 -4 8 -11 12 -24 9 -28z m-31 -49 c-8 -8 -9 -4 -5 13 4 13 8 18 11
10 2 -7 -1 -18 -6 -23z m8 -79 c0 -6 -4 -7 -10 -4 -5 3 -10 11 -10 16 0 6 5 7
10 4 6 -3 10 -11 10 -16z m1521 -25 c6 -8 23 -14 38 -14 14 0 42 -8 61 -19 19
-10 67 -30 105 -44 201 -73 373 -178 381 -232 1 -8 13 -29 27 -47 40 -53 77
-129 77 -159 0 -17 -8 -34 -22 -43 -12 -9 -19 -19 -15 -22 9 -9 -69 -57 -121
-74 -24 -7 -46 -19 -50 -25 -4 -7 -17 -17 -29 -24 -13 -6 -23 -18 -23 -26 0
-8 -18 -24 -41 -35 -126 -65 -256 -176 -285 -245 -15 -37 -13 -61 27 -245 20
-93 14 -247 -14 -385 -41 -198 -58 -275 -77 -335 -10 -30 -26 -83 -36 -118
-18 -59 -39 -82 -63 -68 -5 3 -21 -6 -35 -19 -15 -14 -36 -25 -47 -25 -10 0
-19 -4 -19 -8 0 -12 -115 -49 -196 -63 -40 -6 -95 -10 -123 -7 -37 4 -49 2
-42 -5 18 -18 13 -34 -20 -71 -39 -45 -121 -71 -196 -61 -70 9 -81 21 -76 82
5 42 1 53 -22 81 -32 38 -58 54 -78 47 -22 -9 -16 -33 7 -28 17 4 18 3 6 -6
-9 -6 -10 -11 -3 -11 14 0 11 -59 -6 -86 -11 -18 -12 -18 -6 4 7 24 -4 29 -23
10 -21 -21 -31 4 -34 90 -2 46 -6 86 -10 89 -5 2 -8 -3 -8 -12 0 -30 -49 -111
-134 -220 l-86 -110 -183 -5 c-100 -3 -184 -5 -186 -3 -2 1 23 50 55 110 40
74 65 136 80 198 l22 90 11 -43 c7 -23 9 -48 5 -54 -4 -7 -3 -8 4 -4 7 4 16
-2 21 -16 19 -49 37 -54 94 -26 44 22 98 35 154 37 7 1 15 17 19 37 9 50 49
94 85 94 20 0 29 5 29 17 0 21 56 259 71 298 6 17 17 50 24 75 19 65 18 30 -5
-115 -10 -71 -22 -174 -25 -229 -6 -91 -5 -99 9 -82 22 27 41 14 57 -38 9 -31
19 -46 30 -46 9 0 22 -7 29 -15 23 -27 49 -18 56 20 3 19 10 32 15 29 5 -3 9
0 9 6 0 6 5 8 10 5 6 -3 10 -2 10 3 0 5 14 12 30 14 17 3 30 1 30 -3 0 -16 56
3 73 24 15 19 16 19 10 3 -5 -16 -3 -18 11 -13 10 4 24 7 32 7 8 0 14 7 14 15
0 8 -9 15 -20 15 -22 0 -26 10 -10 26 6 6 13 24 16 40 3 15 9 33 14 39 4 5 10
21 12 34 1 14 9 27 17 29 10 3 12 0 8 -12 -4 -10 -3 -15 3 -11 6 3 10 11 10
17 0 20 33 48 57 48 19 0 23 5 23 33 0 19 3 37 7 41 4 3 8 13 9 20 1 7 5 23 9
35 5 15 2 21 -9 21 -9 0 -16 -5 -16 -11 0 -6 -7 -9 -15 -5 -9 3 -19 -3 -25
-15 -13 -22 -4 -43 13 -32 7 3 3 -3 -7 -15 -16 -18 -22 -20 -34 -9 -13 11 -13
12 2 15 9 2 14 8 10 13 -3 6 2 22 12 37 10 15 17 31 16 36 -2 5 4 23 12 40 8
17 17 48 21 69 4 20 10 37 14 37 3 0 12 19 19 42 22 71 52 92 52 38 0 -17 5
-30 13 -30 8 -1 7 -5 -4 -13 -17 -13 -31 -67 -18 -67 5 0 9 7 9 15 0 9 11 27
24 40 13 13 21 27 17 32 -3 4 -4 7 -2 6 11 -7 31 22 31 43 0 13 5 24 10 24 7
0 9 -19 6 -50 -3 -30 -1 -48 5 -44 5 3 6 10 3 16 -4 7 -2 8 4 4 7 -4 12 -15
13 -24 0 -10 3 -12 6 -5 2 7 4 15 3 19 -1 3 7 12 17 20 16 12 16 15 3 24 -8 5
-10 10 -4 10 6 0 16 15 22 33 10 28 11 29 8 5 -2 -15 1 -25 5 -22 5 3 9 11 9
19 0 8 7 18 16 23 9 5 17 23 18 40 1 29 15 30 19 1 2 -8 6 -20 11 -27 4 -7 5
-16 1 -20 -4 -4 -10 -1 -12 6 -4 10 -8 10 -19 1 -18 -14 -18 -35 -1 -42 13 -5
18 -101 6 -122 -3 -5 -9 -19 -13 -29 -6 -16 -4 -17 10 -5 14 12 16 8 14 -32
-3 -66 -1 -81 9 -74 6 3 9 -4 8 -15 -1 -18 -3 -19 -13 -6 -6 9 -15 12 -19 8
-5 -4 -5 -2 -1 5 3 6 2 14 -4 18 -5 3 -10 -1 -10 -9 0 -28 -1 -31 -21 -52 -25
-27 -30 -69 -13 -111 12 -28 12 -32 0 -27 -9 3 -12 12 -9 22 5 12 2 11 -14 -4
-11 -10 -18 -22 -16 -26 2 -5 -8 -13 -22 -20 -18 -8 -25 -17 -22 -30 3 -10 0
-21 -5 -25 -7 -4 -8 -1 -3 7 5 8 3 11 -6 8 -9 -3 -13 -15 -11 -31 3 -22 0 -26
-14 -20 -15 6 -15 4 2 -14 18 -18 20 -19 39 -4 20 16 20 16 2 -6 -10 -11 -30
-24 -44 -28 -14 -3 -22 -9 -19 -12 6 -7 13 -8 71 -16 17 -3 35 -6 40 -7 17 -5
50 14 50 29 0 8 8 15 18 17 35 5 55 46 66 138 7 49 16 96 20 105 5 9 12 50 16
91 8 84 20 124 34 115 26 -16 41 192 23 304 -11 61 -22 91 -22 58 0 -54 -57
27 -62 88 -1 14 -5 25 -8 25 -4 0 -6 10 -6 23 1 19 -5 22 -39 25 -22 1 -35 -1
-29 -5 8 -6 6 -23 -7 -58 l-17 -50 -1 43 c-1 29 -5 41 -12 36 -11 -6 -9 51 5
121 7 37 13 104 21 215 11 168 26 315 35 335 5 11 11 45 15 75 4 30 8 66 10
78 4 28 44 133 56 146 13 15 -18 72 -66 118 -16 15 -17 21 -6 27 7 5 11 13 8
18 -10 15 41 3 54 -13z m2867 -59 c-3 -3 -9 2 -12 12 -6 14 -5 15 5 6 7 -7 10
-15 7 -18z m2097 -339 l-10 -29 -3 29 c-2 15 0 48 4 73 l8 46 6 -45 c3 -25 1
-58 -5 -74z m-18 -93 c-3 -10 -5 -2 -5 17 0 19 2 27 5 18 2 -10 2 -26 0 -35z
m-6580 -565 c-3 -8 -6 -5 -6 6 -1 11 2 17 5 13 3 -3 4 -12 1 -19z m1493 -107
c0 -6 -4 -13 -10 -16 -5 -3 -10 1 -10 9 0 9 5 16 10 16 6 0 10 -4 10 -9z m100
-595 c0 -3 -4 -8 -10 -11 -5 -3 -10 -1 -10 4 0 6 5 11 10 11 6 0 10 -2 10 -4z
m-396 -95 c3 -4 -5 -18 -19 -31 -21 -20 -23 -20 -20 -4 2 11 4 24 4 29 1 6 6
3 11 -5 8 -13 10 -12 10 3 0 18 6 22 14 8z m-276 -83 c-25 -40 -53 -86 -61
-103 l-16 -30 6 40 c3 22 11 43 17 47 6 4 7 8 2 8 -6 0 -2 6 9 13 10 8 15 19
11 25 -5 8 -2 10 8 6 11 -4 16 0 16 10 0 9 5 16 10 16 6 0 15 12 21 26 5 15
12 24 16 21 3 -4 -15 -39 -39 -79z m-691 -90 c-3 -7 -5 -2 -5 12 0 14 2 19 5
13 2 -7 2 -19 0 -25z m-10 -60 c-3 -7 -5 -2 -5 12 0 14 2 19 5 13 2 -7 2 -19
0 -25z m2155 -123 c-4 -117 -14 -149 -60 -177 -70 -42 -108 -78 -142 -135 -19
-32 -37 -60 -40 -63 -3 -3 -7 -14 -8 -25 -5 -26 -101 -168 -152 -224 -22 -24
-40 -41 -40 -39 0 3 29 54 65 114 36 60 113 203 171 318 151 301 168 329 193
324 13 -3 16 -18 13 -93z m3291 -420 c-3 -9 -8 -14 -10 -11 -3 3 -2 9 2 15 9
16 15 13 8 -4z m-2775 -35 c41 -5 91 -14 113 -20 38 -11 39 -12 39 -56 0 -43
-23 -258 -35 -331 l-6 -33 -139 0 c-131 0 -144 -2 -237 -34 -129 -43 -327
-140 -453 -221 -28 -18 -64 -31 -95 -35 l-50 -5 -3 -40 c-1 -22 -10 -85 -19
-140 -9 -55 -17 -153 -17 -219 l-1 -119 -95 7 c-54 4 -100 12 -107 19 -10 10
-10 28 2 87 39 200 115 449 142 464 11 6 12 10 4 15 -8 5 -5 25 12 69 13 35
27 59 31 55 4 -4 4 0 0 10 -4 12 4 25 27 44 51 43 209 203 252 255 38 48 133
116 222 161 71 35 146 55 245 66 47 4 87 9 90 9 3 1 38 -3 78 -8z m-2653 -292
c-37 -62 -186 -276 -232 -332 -14 -16 -36 -39 -51 -50 -14 -11 48 88 138 222
98 145 168 238 173 233 5 -5 -6 -35 -28 -73z m40 -148 c-3 -5 -12 -10 -18 -10
-7 0 -6 4 3 10 19 12 23 12 15 0z m3497 -50 c5 0 6 -4 3 -10 -3 -5 -1 -10 5
-10 7 0 9 -7 6 -17 -4 -10 -4 -14 0 -11 3 4 15 -3 25 -15 15 -18 14 -11 -6 36
-50 116 -22 67 69 -118 137 -282 286 -528 444 -738 77 -101 77 -102 43 -126
-35 -25 -54 -26 -87 -4 -88 57 -320 478 -438 793 -36 96 -72 192 -80 212 -18
42 -21 65 -4 31 6 -13 15 -23 20 -23z m-3532 -2 c0 -5 -4 -8 -10 -8 -5 0 -10
10 -10 23 0 18 2 19 10 7 5 -8 10 -18 10 -22z m2662 -8 c39 -11 92 -50 107
-79 8 -14 4 -17 -22 -16 -36 0 -85 26 -128 67 -40 38 -26 47 43 28z m-202 -31
c-7 -12 -18 -18 -26 -15 -8 3 -14 1 -14 -4 0 -6 -9 -10 -20 -10 -11 0 -20 -4
-20 -9 0 -11 -120 -71 -141 -71 -25 -1 -59 -38 -75 -82 -8 -24 -29 -60 -46
-82 -51 -63 -73 -139 -69 -236 2 -41 16 -54 58 -52 77 4 83 -36 10 -68 -51
-23 -83 -54 -98 -98 -14 -42 -44 -49 -116 -26 -109 33 -126 66 -127 249 -1 72
2 142 7 158 7 27 41 52 232 172 84 53 262 141 315 155 25 7 53 18 64 26 11 8
33 14 49 14 25 0 27 -2 17 -21z m-1059 -52 c-6 -8 -8 -17 -4 -20 3 -4 0 -13
-7 -22 -8 -9 -8 -15 -2 -15 6 0 13 4 17 10 3 5 12 7 20 3 9 -3 27 2 41 12 44
28 40 7 -7 -41 -82 -86 -245 -214 -407 -323 -91 -61 -252 -151 -270 -151 -19
0 -62 39 -62 55 0 18 38 47 150 115 165 99 295 191 420 294 114 95 133 109
111 83z m2091 -384 c21 -9 40 -24 44 -35 6 -20 -28 -176 -53 -242 -25 -64 -60
-105 -132 -151 -64 -41 -175 -85 -186 -73 -4 3 3 76 14 161 12 85 21 180 21
211 0 58 18 118 40 131 43 26 189 25 252 -2z m-1062 -285 c31 -50 35 -92 13
-122 -20 -28 -50 -33 -78 -13 -14 11 -17 23 -13 63 11 103 42 131 78 72z
m-720 -192 c20 -62 43 -106 88 -168 71 -97 114 -140 200 -198 34 -23 62 -46
62 -51 0 -13 -330 -11 -371 2 -41 14 -181 147 -216 207 -57 96 -15 258 90 347
l42 35 39 -45 c28 -32 47 -70 66 -129z m1256 28 c-3 -9 -6 -26 -6 -40 0 -17
-21 -44 -72 -91 -40 -38 -88 -84 -107 -103 -38 -38 -229 -157 -307 -192 -34
-14 -59 -19 -88 -15 -68 10 -218 63 -281 100 -70 41 -229 201 -251 252 -31 76
17 87 79 18 74 -82 99 -103 164 -135 80 -39 134 -44 251 -24 50 9 112 16 138
16 66 0 183 29 231 57 23 13 78 57 122 96 51 45 91 73 107 75 20 1 25 -2 20
-14z m162 -81 c5 -10 7 -25 4 -33 -7 -23 -44 -50 -69 -50 -20 0 -21 3 -13 31
17 60 60 87 78 52z m-88 -14 c0 -12 -10 -38 -22 -58 -13 -20 -23 -39 -24 -43
-1 -5 -2 -12 -3 -17 -2 -14 -50 -59 -70 -64 -17 -4 -18 -2 -5 22 8 14 25 51
38 81 38 84 86 128 86 79z m-166 -220 c-29 -34 -120 -89 -146 -89 -20 0 -21 2
-7 15 13 13 154 92 168 94 2 1 -4 -9 -15 -20z"/>
<path d="M5672 12010 c0 -14 2 -19 5 -12 2 6 2 18 0 25 -3 6 -5 1 -5 -13z"/>
<path d="M5651 11884 c0 -11 3 -14 6 -6 3 7 2 16 -1 19 -3 4 -6 -2 -5 -13z"/>
<path d="M6740 5520 c0 -5 -7 -10 -15 -10 -8 0 -15 -5 -15 -10 0 -7 6 -7 20 0
18 10 28 30 15 30 -3 0 -5 -4 -5 -10z"/>
<path d="M6723 5463 c-15 -6 -17 -43 -3 -43 6 0 10 -8 11 -17 0 -15 2 -15 9 2
11 25 12 65 3 64 -5 0 -14 -3 -20 -6z"/>
<path d="M6697 5360 c-4 -17 -3 -19 8 -10 10 8 15 7 19 -2 3 -7 5 -4 3 6 -3
27 -23 31 -30 6z"/>
<path d="M6752 5315 c4 -7 6 -14 4 -16 -2 -2 2 -10 10 -17 20 -18 17 2 -3 25
-10 10 -15 14 -11 8z"/>
<path d="M6750 5208 c0 -21 4 -38 9 -38 11 0 26 59 17 67 -3 4 -6 0 -6 -8 0
-11 -2 -11 -10 1 -7 11 -10 5 -10 -22z"/>
<path d="M12800 5578 c0 -7 4 -19 9 -26 7 -11 10 -10 15 3 3 9 4 21 0 26 -8
13 -24 11 -24 -3z"/>
<path d="M11365 3970 c-16 -7 -17 -9 -3 -9 9 -1 20 4 23 9 7 11 7 11 -20 0z"/>
<path d="M8440 3924 c0 -17 4 -22 15 -18 8 4 15 14 15 23 0 10 -7 18 -15 18
-9 0 -15 -10 -15 -23z"/>
<path d="M8360 3395 c0 -8 2 -15 4 -15 2 0 6 7 10 15 3 8 1 15 -4 15 -6 0 -10
-7 -10 -15z"/>
<path d="M8460 3305 c0 -8 2 -15 4 -15 2 0 6 7 10 15 3 8 1 15 -4 15 -6 0 -10
-7 -10 -15z"/>
<path d="M8206 3295 c-3 -8 -1 -15 4 -15 6 0 10 7 10 15 0 8 -2 15 -4 15 -2 0
-6 -7 -10 -15z"/>
<path d="M8355 3080 c-3 -5 -1 -10 4 -10 6 0 11 5 11 10 0 6 -2 10 -4 10 -3 0
-8 -4 -11 -10z"/>
<path d="M8118 3062 c-14 -15 -15 -20 -2 -36 8 -11 14 -14 14 -8 0 7 -1 13 -2
15 -1 1 4 12 11 25 14 26 3 28 -21 4z"/>
<path d="M8321 3054 c0 -11 3 -14 6 -6 3 7 2 16 -1 19 -3 4 -6 -2 -5 -13z"/>
<path d="M8245 2990 c-3 -5 -1 -10 4 -10 6 0 11 5 11 10 0 6 -2 10 -4 10 -3 0
-8 -4 -11 -10z"/>
<path d="M7845 2740 c-16 -6 -13 -8 18 -14 20 -4 42 -4 47 -1 6 3 10 1 10 -4
0 -6 7 -11 15 -11 8 0 15 3 15 8 0 13 -48 30 -61 21 -8 -4 -16 -4 -19 0 -3 5
-14 5 -25 1z"/>
<path d="M7970 2700 c8 -5 20 -10 25 -10 6 0 3 5 -5 10 -8 5 -19 10 -25 10 -5
0 -3 -5 5 -10z"/>
<path d="M12164 15061 c4 -5 2 -11 -3 -13 -12 -4 25 -85 49 -108 3 -3 11 -17
17 -32 7 -16 17 -28 23 -28 5 0 10 -10 10 -21 0 -17 5 -20 21 -16 15 4 19 2
15 -8 -3 -8 2 -22 11 -31 14 -13 18 -14 22 -3 2 7 -1 15 -7 17 -7 2 -12 15
-12 28 0 13 -12 43 -27 67 -15 23 -36 58 -46 77 -22 40 -56 80 -69 80 -5 0 -7
-4 -4 -9z"/>
<path d="M6915 14905 c-8 -140 3 -356 26 -508 85 -577 159 -1024 195 -1180 25
-108 105 -383 143 -487 31 -88 24 -31 -13 103 -36 127 -92 363 -120 502 -16
79 -138 911 -176 1194 -10 79 -22 209 -26 290 -10 225 -19 252 -29 86z"/>
<path d="M12300 14772 c0 -4 9 -13 20 -20 23 -14 26 -7 6 14 -16 15 -26 18
-26 6z"/>
<path d="M16433 14600 c38 -93 133 -291 138 -286 2 2 5 -5 6 -17 0 -12 10 -42
21 -67 17 -38 21 -42 27 -26 5 11 3 27 -3 37 -7 10 -12 26 -12 34 0 8 -5 15
-11 15 -7 0 -9 10 -7 25 3 14 2 28 -3 31 -4 2 -6 11 -2 19 9 24 -5 58 -38 95
-17 19 -38 47 -47 62 -9 15 -22 28 -29 28 -11 0 -17 11 -15 30 0 3 -8 17 -19
30 l-20 25 14 -35z"/>
<path d="M16610 14501 c0 -6 4 -13 10 -16 6 -3 7 1 4 9 -7 18 -14 21 -14 7z"/>
<path d="M15054 13770 c20 -89 78 -381 91 -460 69 -411 93 -572 109 -740 44
-449 50 -545 51 -795 0 -227 -4 -295 -32 -540 -17 -154 -37 -338 -43 -410 -24
-283 -77 -491 -199 -772 -33 -78 -61 -145 -61 -149 0 -16 -64 -144 -71 -144
-21 0 6 105 51 205 46 102 87 281 89 390 0 50 -3 96 -8 103 -5 8 -3 40 5 75
20 98 55 468 59 637 l4 155 -18 -125 c-10 -69 -28 -190 -40 -270 -35 -235 -75
-417 -160 -725 -85 -311 -117 -408 -187 -571 -168 -394 -330 -648 -667 -1049
-32 -38 -68 -82 -79 -97 -18 -26 -18 -27 -1 -21 17 6 17 5 2 -13 -9 -10 -65
-77 -124 -149 -60 -71 -131 -154 -159 -184 -51 -53 -294 -261 -397 -339 -62
-47 -268 -172 -282 -172 -6 0 -8 -3 -5 -6 10 -9 197 90 298 158 84 56 254 180
488 356 40 30 96 82 126 116 123 142 299 392 441 626 48 80 118 190 154 245
37 55 70 107 73 115 14 36 69 99 81 94 15 -5 47 36 47 61 0 8 -8 15 -17 16
-10 0 -13 3 -7 5 7 3 10 14 7 24 -3 11 3 32 13 47 10 16 17 34 16 41 -2 6 2
20 8 30 11 16 11 16 6 -1 -4 -12 -2 -17 6 -14 14 5 14 10 2 42 -7 17 -6 18 8
7 13 -10 17 -9 23 10 4 13 9 34 11 48 3 21 1 20 -11 -7 -17 -37 -29 -45 -16
-10 30 74 65 143 79 155 9 7 12 11 5 8 -7 -4 -9 1 -6 14 3 11 9 18 13 15 13
-8 38 5 44 23 3 10 3 -3 0 -28 -3 -24 -25 -92 -50 -150 -24 -58 -43 -117 -42
-131 2 -24 -33 -94 -91 -184 -67 -104 -135 -237 -158 -310 -60 -189 -96 -284
-130 -340 -57 -94 -163 -231 -264 -340 -139 -151 -281 -346 -265 -363 8 -8 52
40 152 163 81 100 196 215 215 215 6 0 8 -4 4 -9 -3 -5 1 -29 10 -53 8 -24 15
-51 15 -60 0 -22 -5 -22 62 1 73 25 136 67 154 104 19 36 12 45 -18 23 -84
-60 -151 -92 -170 -80 -12 8 -1 59 23 106 29 57 95 100 235 153 l69 26 -26
-28 c-15 -15 -34 -40 -44 -55 -16 -25 -16 -31 -2 -60 8 -18 18 -55 21 -83 9
-64 15 -85 26 -85 19 0 33 72 35 180 l1 114 29 19 c17 10 100 53 185 95 172
86 216 115 244 164 l20 33 -38 -33 c-77 -67 -476 -246 -507 -227 -4 3 -1 26 6
53 8 26 32 112 54 192 22 80 60 203 85 274 39 112 50 135 86 168 30 28 55 70
91 149 27 60 49 114 49 120 0 5 5 19 10 30 10 18 16 15 77 -38 120 -105 195
-178 207 -203 11 -20 10 -46 -2 -133 -13 -91 -13 -122 -2 -206 11 -86 11 -102
-3 -130 -21 -41 -5 -39 39 5 23 25 33 42 29 53 -4 9 -13 59 -20 111 -12 92 -6
169 21 258 4 16 2 22 -9 22 -8 0 -31 20 -51 44 -20 24 -92 101 -160 171 l-123
126 13 71 c7 39 23 96 34 127 25 66 136 328 150 353 6 10 10 25 10 33 0 8 4
15 9 15 5 0 9 12 9 26 0 41 15 48 58 26 22 -11 48 -28 59 -37 11 -9 14 -14 8
-10 -17 8 -17 -23 0 -39 7 -7 18 -11 25 -8 20 6 14 -22 -8 -36 -17 -10 -21
-10 -26 3 -5 13 -9 13 -35 -1 l-29 -15 19 -37 c10 -20 53 -79 95 -131 45 -56
76 -103 76 -117 0 -12 4 -25 9 -28 11 -7 9 264 -2 282 -5 6 -18 12 -31 12 -35
0 -61 23 -49 44 5 10 14 19 19 19 5 1 8 7 8 14 -3 24 74 -26 143 -94 48 -47
76 -83 88 -115 20 -55 40 -64 30 -15 -15 80 -38 168 -42 163 -3 -2 -39 19 -81
48 -43 30 -111 70 -152 91 -41 21 -77 41 -78 46 -2 5 -9 6 -15 2 -9 -5 -9 -3
-1 8 6 8 15 31 18 52 6 34 10 38 29 32 12 -3 29 -8 37 -9 50 -10 80 -20 80
-27 0 -5 9 -9 20 -9 12 0 26 -12 36 -32 22 -43 76 -119 81 -114 8 8 -87 227
-120 277 -61 90 -83 112 -104 101 -10 -6 -31 -8 -46 -5 -25 5 -27 8 -21 42 20
118 47 237 55 245 5 6 9 18 9 29 0 27 17 12 23 -22 5 -24 15 -32 54 -46 144
-52 264 -131 289 -191 14 -34 153 -582 173 -684 10 -49 38 -225 76 -485 16
-103 28 -141 55 -170 17 -18 21 -48 30 -245 6 -124 14 -436 17 -695 5 -428 11
-536 29 -467 4 12 13 22 20 22 8 0 14 4 14 9 0 15 50 9 59 -8 5 -9 11 -61 15
-116 19 -278 41 -472 76 -660 43 -231 81 -487 100 -675 11 -107 27 -260 35
-340 9 -80 20 -237 25 -350 20 -407 34 -505 109 -805 17 -66 44 -214 62 -330
26 -173 32 -243 33 -397 1 -138 4 -189 13 -192 14 -6 24 27 48 159 9 50 28
135 41 190 43 168 55 253 61 420 6 176 -3 251 -55 463 -28 112 -31 136 -11 85
l11 -28 8 25 c4 14 13 44 19 68 14 51 43 68 79 46 20 -13 23 -13 28 1 12 30
-18 439 -46 630 -39 272 -51 363 -70 520 -11 99 -29 241 -41 315 -22 148 -64
504 -73 615 -4 39 -8 93 -11 120 -2 28 -7 102 -10 165 -3 63 -11 189 -18 280
-19 257 -9 538 19 547 15 5 218 -203 330 -337 292 -351 327 -390 649 -720 329
-337 425 -441 523 -561 55 -68 138 -163 184 -210 45 -47 98 -111 116 -141 29
-49 100 -209 195 -438 17 -41 43 -93 58 -115 15 -22 49 -78 75 -125 76 -135
214 -340 229 -340 3 0 -21 37 -52 83 -98 141 -179 292 -207 384 -59 191 -99
298 -194 523 -54 129 -116 287 -137 350 -21 63 -60 174 -87 245 -54 140 -198
541 -268 745 -24 69 -51 144 -61 168 -10 23 -14 42 -9 42 15 0 120 -92 207
-181 45 -46 150 -167 235 -269 191 -231 487 -574 681 -790 178 -197 283 -330
534 -675 364 -500 417 -594 618 -1105 147 -375 185 -533 193 -800 3 -129 9
-193 18 -212 29 -56 11 -47 -83 42 -54 51 -111 101 -128 112 -16 11 26 -34 95
-101 69 -66 128 -120 132 -121 4 0 8 416 8 925 0 569 -3 925 -9 925 -5 0 -99
98 -208 218 -244 268 -318 341 -494 489 -76 64 -139 120 -139 125 0 47 342
-138 570 -308 36 -27 67 -52 68 -56 2 -5 10 -8 18 -8 8 0 14 -5 14 -11 0 -5 4
-8 9 -4 5 3 13 0 17 -7 5 -8 10 -2 16 17 5 20 3 32 -5 37 -7 5 1 6 18 2 17 -4
36 -11 43 -17 8 -6 16 -6 25 2 8 6 17 8 20 4 15 -14 6 12 -10 29 -15 17 -15
18 0 18 10 0 17 -5 17 -11 0 -5 4 -8 9 -5 5 4 12 0 14 -6 3 -7 6 0 6 15 1 22
-31 71 -128 201 -70 95 -160 219 -199 277 -39 57 -100 132 -136 167 -36 35
-66 70 -66 78 0 13 3 13 22 0 12 -9 30 -16 38 -16 19 0 182 -92 230 -130 38
-30 126 -63 198 -75 l42 -7 0 45 0 45 -52 17 c-130 42 -325 125 -487 207 -97
49 -205 98 -241 109 -177 54 -490 196 -740 334 -220 122 -343 194 -430 250
-52 34 -131 77 -175 95 -44 17 -119 54 -166 81 -48 27 -90 49 -93 49 -14 0
-104 92 -109 111 -6 23 -6 23 65 0 68 -23 91 -37 188 -117 74 -61 140 -102
140 -87 -1 7 -77 69 -380 309 -100 79 -318 280 -480 443 -229 231 -385 397
-399 423 -7 14 -35 53 -62 85 -27 32 -49 61 -49 66 0 4 -8 15 -17 25 -10 9
-25 29 -34 42 -22 33 -32 22 -14 -13 8 -16 16 -36 17 -45 2 -9 11 -26 21 -37
16 -17 16 -20 3 -23 -9 -2 -16 -8 -16 -13 0 -6 5 -7 11 -3 7 4 9 -2 7 -17 -2
-13 -9 -23 -16 -22 -6 2 -12 -4 -12 -12 0 -8 5 -15 12 -15 6 0 8 -3 5 -7 -4
-3 -16 3 -27 15 -12 12 -25 22 -30 22 -6 0 -10 6 -10 13 0 13 -44 37 -68 37
-7 0 -20 7 -28 15 -18 17 -34 20 -34 5 0 -5 -17 6 -37 25 -20 19 -39 32 -42
30 -2 -3 -15 2 -28 10 -13 9 -28 13 -33 10 -6 -3 -10 -1 -10 5 0 6 -5 8 -10 5
-6 -4 -9 -1 -8 6 2 7 -12 18 -30 24 -18 6 -29 14 -26 18 4 4 3 7 -3 7 -6 0
-13 9 -16 20 -3 11 -14 21 -26 21 -38 3 -42 4 -50 18 -5 8 -16 11 -25 8 -18
-7 -22 -37 -5 -37 5 0 7 -5 4 -10 -5 -8 -11 -7 -20 0 -11 10 -13 8 -10 -9 2
-12 7 -26 10 -31 3 -6 -1 -10 -10 -10 -13 0 -11 -6 8 -37 12 -21 29 -51 36
-68 l13 -30 -24 20 c-121 103 -183 197 -208 314 -7 34 -16 61 -20 61 -3 0 -11
-69 -17 -152 -12 -166 -30 -241 -67 -281 -24 -26 -91 -51 -109 -40 -6 4 -8 46
-4 111 6 101 -6 252 -34 427 -6 39 -31 122 -56 185 -48 119 -78 221 -139 470
-19 80 -46 184 -60 232 -21 71 -23 90 -13 106 20 32 -5 161 -36 187 -23 19
-27 48 -15 105 0 3 7 -8 15 -25 8 -18 14 -23 14 -13 1 9 5 18 10 20 5 2 7 16
4 31 -4 19 -10 26 -19 23 -10 -4 -14 3 -14 25 0 18 4 28 10 24 13 -8 13 -6 -5
95 -15 84 -69 268 -59 200 3 -19 6 -47 7 -62 1 -14 5 -30 10 -34 4 -4 7 -17 7
-29 0 -13 7 -38 14 -57 15 -35 11 -83 -5 -72 -5 3 -6 -2 -3 -10 4 -11 0 -16
-10 -16 -9 0 -16 -6 -15 -12 4 -30 -2 -48 -15 -48 -10 0 -12 7 -9 21 4 15 0
27 -12 35 -11 8 -15 14 -11 14 5 0 3 7 -4 15 -7 9 -10 18 -6 22 3 3 0 16 -7
27 -8 12 -17 32 -21 46 -29 104 -37 140 -40 196 -3 35 -7 68 -11 74 -3 5 -2
10 3 10 5 0 14 12 21 27 12 27 13 27 27 8 14 -18 14 -18 14 2 0 12 4 24 9 28
6 3 4 20 -5 40 -8 19 -11 35 -7 35 5 0 2 4 -4 8 -7 5 -14 21 -15 38 -2 37 -49
207 -84 299 -91 246 -145 402 -159 455 -9 34 -32 168 -51 298 -49 333 -91 557
-135 717 -21 76 -56 168 -45 115z m-402 -4412 c-7 -7 -12 -8 -12 -2 0 14 12
26 19 19 2 -3 -1 -11 -7 -17z m3091 -880 c15 -6 26 -13 23 -16 -3 -3 0 -12 7
-20 8 -10 -1 -8 -29 6 -45 23 -85 62 -49 48 11 -4 33 -13 48 -18z m-1455
-1137 c10 -83 22 -133 22 -88 0 10 5 17 10 17 6 0 10 30 10 69 0 75 12 98 28
54 l10 -28 7 32 c6 25 12 31 31 28 13 -1 30 -7 37 -14 8 -6 17 -8 20 -4 4 3 7
-1 7 -9 0 -9 -7 -21 -16 -29 -11 -9 -14 -23 -11 -48 7 -44 17 -91 24 -111 4
-8 5 -18 5 -22 -1 -5 3 -8 8 -8 6 0 10 6 10 13 1 6 8 -4 17 -23 15 -32 17 -33
21 -12 2 15 -4 30 -17 41 -12 10 -21 28 -21 40 0 12 -4 19 -10 16 -6 -4 -10
10 -10 34 0 23 4 41 9 41 5 0 12 8 15 18 3 13 4 12 3 -4 -1 -11 5 -31 14 -45
21 -32 51 -154 65 -264 3 -22 7 -45 9 -52 2 -6 -2 -16 -9 -22 -10 -8 -18 -6
-31 9 -25 28 -34 11 -30 -62 3 -69 7 -75 29 -53 15 15 16 15 13 -2 -1 -10 -6
-24 -10 -30 -5 -9 -2 -13 10 -14 17 -1 17 -2 0 -6 -10 -3 -20 -18 -24 -35 -3
-16 -19 -39 -34 -51 -16 -11 -29 -28 -29 -36 -1 -9 -12 3 -26 26 -22 36 -29
41 -44 33 -15 -8 -17 -16 -10 -44 4 -19 4 -39 0 -46 -4 -6 -10 10 -13 37 -3
26 -1 53 5 60 6 7 7 29 2 55 -7 39 -8 40 -15 18 -4 -14 -7 -20 -8 -15 -1 6
-10 60 -20 120 -15 84 -16 113 -8 124 9 11 9 13 0 8 -8 -5 -15 10 -22 45 -22
108 -41 260 -45 360 -5 111 -1 90 22 -121z m124 -766 c-2 -14 -8 -25 -13 -25
-10 0 -12 34 -2 43 13 14 20 6 15 -18z m21 -290 c3 -42 2 -58 -3 -40 -8 30
-13 122 -6 114 2 -2 6 -35 9 -74z m4 -117 c-3 -7 -5 -2 -5 12 0 14 2 19 5 13
2 -7 2 -19 0 -25z m30 -270 c-3 -8 -6 -5 -6 6 -1 11 2 17 5 13 3 -3 4 -12 1
-19z m127 -294 c9 -24 2 -26 -12 -4 -7 11 -8 20 -3 20 5 0 12 -7 15 -16z m66
-69 c13 -14 21 -25 18 -25 -2 0 -15 11 -28 25 -13 14 -21 25 -18 25 2 0 15
-11 28 -25z"/>
<path d="M6241 13650 c-1 -3 6 -84 14 -180 8 -96 15 -215 16 -263 2 -113 19
-93 19 22 0 89 -26 345 -40 396 -4 17 -9 28 -9 25z"/>
<path d="M3526 13523 c-6 -14 -5 -15 5 -6 7 7 10 15 7 18 -3 3 -9 -2 -12 -12z"/>
<path d="M10037 12963 c-4 -6 -12 -49 -18 -95 -5 -46 -16 -116 -24 -156 -21
-100 -17 -122 6 -37 37 140 61 328 36 288z"/>
<path d="M15903 12880 c4 -30 11 -145 18 -255 23 -416 107 -971 215 -1430 25
-104 57 -262 71 -350 24 -150 26 -184 28 -549 2 -363 3 -390 20 -402 10 -8 19
-13 20 -11 1 1 -1 90 -5 197 -4 107 -3 200 1 205 4 6 10 29 14 53 4 24 13 46
21 49 21 8 17 24 -13 55 -14 15 -23 31 -19 35 4 5 20 -7 35 -24 15 -18 33 -33
39 -33 7 0 12 -4 12 -10 0 -5 5 -10 10 -10 15 0 -14 52 -65 118 l-43 57 -6
115 c-7 117 -21 198 -82 468 -36 160 -44 202 -93 497 -59 353 -87 568 -126
950 -17 162 -41 314 -51 324 -4 3 -4 -19 -1 -49z"/>
<path d="M10890 12589 c-41 -4 -100 -12 -130 -18 -30 -6 -107 -17 -170 -26
-216 -29 -425 -77 -492 -111 -46 -24 -28 -25 43 -4 108 34 537 112 761 140 74
9 93 8 125 -5 38 -16 38 -16 18 3 -26 25 -62 30 -155 21z"/>
<path d="M3676 12553 c-6 -14 -5 -15 5 -6 7 7 10 15 7 18 -3 3 -9 -2 -12 -12z"/>
<path d="M9951 12044 c0 -11 3 -14 6 -6 3 7 2 16 -1 19 -3 4 -6 -2 -5 -13z"/>
<path d="M9943 11955 c0 -22 2 -30 4 -17 2 12 2 30 0 40 -3 9 -5 -1 -4 -23z"/>
<path d="M7856 11855 c24 -101 144 -395 207 -507 36 -63 45 -77 122 -179 37
-49 77 -114 164 -270 17 -31 31 -64 31 -73 0 -31 114 -184 328 -438 141 -168
203 -228 307 -295 63 -41 109 -73 96 -66 -2 1 -9 -4 -17 -11 -7 -7 -25 -12
-41 -9 -15 2 69 -30 187 -72 193 -68 343 -105 315 -78 -5 6 -63 33 -128 62
-178 78 -226 102 -296 144 -146 88 -283 222 -409 399 -65 90 -77 116 -39 80
12 -11 48 -38 79 -59 57 -38 224 -183 211 -183 -4 0 3 -9 15 -21 12 -11 27
-17 34 -13 8 5 9 2 5 -9 -3 -10 -2 -17 3 -17 14 0 22 38 11 57 -19 35 -128
129 -227 195 -119 81 -211 169 -281 269 -61 88 -71 109 -51 109 9 0 42 -31 76
-70 212 -244 647 -574 971 -738 118 -59 234 -98 397 -135 114 -25 154 -40 154
-57 0 -6 8 -10 18 -11 11 -1 9 -4 -8 -9 -20 -7 -17 -8 20 -8 25 0 39 2 32 5
-15 6 -45 60 -39 71 3 4 1 16 -4 27 -7 20 -8 20 -8 -1 -1 -31 -7 -33 -59 -19
-26 7 -73 19 -104 25 -34 8 -58 19 -58 26 0 9 -10 12 -33 9 -18 -2 -50 2 -72
11 -22 8 -49 18 -60 21 -33 11 -196 98 -255 136 -156 102 -479 357 -570 452
-36 37 -92 90 -125 117 -153 128 -266 243 -393 400 -189 233 -223 283 -357
518 -64 113 -125 214 -136 225 l-20 20 7 -30z m387 -636 c6 -9 7 -25 3 -35 -6
-16 -9 -14 -26 14 -11 18 -20 35 -20 38 0 12 33 -2 43 -17z m38 -96 c13 -16
12 -17 -3 -4 -10 7 -18 15 -18 17 0 8 8 3 21 -13z"/>
<path d="M5273 11745 c0 -44 2 -61 4 -37 2 23 2 59 0 80 -2 20 -4 1 -4 -43z"/>
<path d="M15555 11690 c3 -5 8 -10 11 -10 2 0 4 5 4 10 0 6 -5 10 -11 10 -5 0
-7 -4 -4 -10z"/>
<path d="M5270 11639 c0 -11 5 -17 10 -14 6 3 10 13 10 21 0 8 -4 14 -10 14
-5 0 -10 -9 -10 -21z"/>
<path d="M5267 11590 c-4 -14 -9 -50 -11 -80 -3 -30 -8 -75 -10 -100 -21 -213
-21 -237 1 -310 20 -67 20 -67 22 -82 1 -9 4 -8 11 2 12 18 12 544 0 575 -7
19 -8 18 -13 -5z"/>
<path d="M3547 11234 c-4 -21 -11 -102 -17 -179 -21 -282 -41 -523 -55 -650
-8 -71 -19 -193 -25 -269 -6 -77 -15 -159 -21 -184 -14 -63 -39 -370 -39 -484
0 -54 -7 -148 -16 -210 -21 -150 -9 -269 46 -473 24 -90 45 -197 70 -362 38
-259 97 -435 194 -580 48 -73 75 -101 38 -40 -11 17 -30 62 -42 100 -13 37
-27 67 -31 67 -5 0 -9 15 -9 34 0 28 4 35 27 40 16 5 29 3 34 -5 5 -9 16 -6
43 10 35 22 49 18 24 -7 -9 -9 -9 -12 -1 -12 7 0 14 8 17 18 4 11 18 25 32 33
14 7 37 35 50 61 32 63 67 67 66 8 0 -3 -2 -14 -6 -25 -4 -16 1 -25 23 -38
l28 -17 23 73 c13 39 26 100 30 134 3 34 9 65 12 68 3 4 21 -13 39 -35 19 -23
46 -57 61 -74 47 -56 54 -108 35 -233 -10 -59 -24 -155 -32 -213 -8 -58 -20
-130 -26 -160 -18 -95 -177 -562 -302 -890 -66 -173 -135 -355 -154 -405 -18
-49 -40 -105 -49 -122 -8 -18 -21 -50 -28 -70 -13 -35 -85 -196 -107 -235 -5
-10 -9 -20 -9 -22 0 -6 28 -1 53 9 12 5 17 2 17 -8 0 -28 49 -11 92 32 23 22
45 41 49 41 4 0 50 35 103 78 52 42 150 115 217 162 152 105 231 181 246 235
22 76 56 331 57 425 0 52 -3 147 -7 210 -4 63 -12 185 -17 270 -30 482 -42
642 -56 705 -9 39 -20 90 -25 115 -5 24 -51 118 -101 210 -119 213 -220 415
-258 513 -60 153 -110 328 -120 418 -6 50 -14 99 -19 108 -4 9 -13 45 -20 81
-15 79 -50 234 -63 275 -5 17 -13 91 -18 165 -5 74 -15 212 -22 305 -7 106
-11 326 -10 581 3 384 -4 520 -21 418z m-44 -1276 c9 -24 36 -124 61 -223 49
-194 69 -258 110 -347 31 -68 32 -74 5 -89 -24 -12 -61 -92 -139 -291 -29 -76
-56 -138 -59 -138 -15 0 -44 132 -48 224 -5 101 21 771 33 859 4 26 10 47 14
47 4 0 14 -19 23 -42z m142 -1506 c0 -9 6 -16 13 -14 9 2 9 -4 -2 -20 -8 -13
-15 -26 -16 -30 0 -5 -3 -7 -7 -5 -5 1 -7 6 -5 10 1 5 -2 6 -8 2 -19 -12 -22
24 -4 54 18 31 29 32 29 3z"/>
<path d="M7426 11185 c3 -22 28 -133 55 -248 27 -114 49 -217 49 -230 0 -43
40 -179 71 -245 25 -52 55 -90 134 -168 114 -114 186 -164 89 -63 -106 112
-148 183 -215 372 -42 118 -130 416 -149 507 -6 30 -17 69 -25 85 l-14 30 5
-40z"/>
<path d="M11078 11215 c-2 -3 -70 -16 -151 -30 -179 -31 -254 -54 -332 -100
-70 -42 -103 -72 -129 -115 -17 -29 -13 -28 44 18 77 63 165 106 258 129 108
26 112 7 10 -52 -120 -69 -222 -147 -248 -190 -12 -20 -20 -38 -17 -41 3 -3
42 28 86 69 90 85 203 158 380 246 66 34 121 63 121 66 0 6 -15 6 -22 0z"/>
<path d="M15883 10833 c36 -427 63 -558 153 -735 17 -33 21 -53 16 -69 -8 -19
-11 -17 -41 27 -18 27 -30 40 -26 29 63 -175 63 -173 58 -315 -5 -154 3 -156
41 -8 39 151 59 557 36 737 -8 63 -16 82 -54 135 -24 34 -52 68 -61 76 -23 19
-80 107 -99 153 -8 20 -18 37 -22 37 -4 0 -4 -30 -1 -67z m121 -355 c-5 -7 -1
-9 13 -6 27 7 43 -27 43 -92 0 -39 -3 -48 -17 -46 -28 4 -69 156 -42 156 5 0
7 -5 3 -12z"/>
<path d="M11460 10820 c-25 -5 -103 -11 -175 -15 -161 -9 -253 -25 -329 -59
-71 -32 -211 -123 -246 -161 -23 -25 -20 -25 25 7 28 19 63 40 78 46 25 11 27
10 18 -6 -5 -9 -46 -52 -90 -94 -85 -81 -112 -121 -94 -139 8 -8 33 9 86 59
191 177 355 257 648 317 99 20 197 54 154 53 -16 0 -50 -4 -75 -8z"/>
<path d="M12135 10759 c-27 -4 -72 -12 -100 -17 -27 -5 -95 -17 -150 -26 -215
-35 -324 -71 -525 -170 -253 -126 -635 -399 -674 -481 -25 -51 -21 -69 11 -60
16 4 25 3 21 -1 -12 -11 12 -34 36 -34 11 0 45 18 75 41 29 22 56 37 59 34 4
-3 -13 -43 -36 -89 -40 -79 -50 -124 -36 -160 10 -26 23 -19 98 52 90 85 156
129 314 207 134 66 213 99 352 148 179 62 212 69 545 107 99 12 215 0 390 -41
200 -46 191 -42 205 -99 7 -28 14 -50 17 -50 3 0 22 14 43 30 21 17 44 30 53
30 8 0 74 -29 148 -64 216 -103 248 -106 288 -28 27 53 46 66 95 67 36 0 41 3
44 25 2 19 -4 28 -25 37 -56 25 -96 54 -86 64 11 11 53 14 76 4 24 -10 23 20
-2 41 -17 15 -17 19 -4 45 8 16 19 29 24 29 11 0 12 77 2 83 -5 3 -43 -22 -86
-54 -43 -32 -83 -59 -88 -59 -6 0 12 26 40 57 28 31 51 61 51 65 0 13 -39 9
-72 -8 -31 -16 -32 -16 -50 6 -17 21 -29 23 -159 29 -77 3 -147 2 -155 -2 -28
-16 -26 2 5 48 35 52 81 139 81 154 0 19 -34 20 -108 5 -42 -9 -138 -17 -212
-19 -74 -2 -158 -9 -185 -15 -82 -19 -225 -37 -225 -28 0 4 -8 8 -17 8 -25 1
87 39 114 40 32 0 20 23 -23 43 -37 18 -87 20 -169 6z"/>
<path d="M5673 10605 c0 -22 2 -30 4 -17 2 12 2 30 0 40 -3 9 -5 -1 -4 -23z"/>
<path d="M5655 10488 c-4 -35 -10 -79 -15 -98 -14 -60 -22 -150 -13 -150 9 0
47 299 39 307 -2 2 -7 -24 -11 -59z"/>
<path d="M7275 10432 c11 -12 169 -92 182 -92 4 0 -24 20 -62 45 -39 25 -75
45 -82 45 -6 0 -20 3 -30 6 -12 5 -15 4 -8 -4z"/>
<path d="M15200 10284 c-19 -51 -19 -54 -15 -54 8 0 37 71 32 77 -4 3 -11 -7
-17 -23z"/>
<path d="M15570 10241 c0 -6 4 -13 10 -16 6 -3 7 1 4 9 -7 18 -14 21 -14 7z"/>
<path d="M5601 10084 c0 -11 3 -14 6 -6 3 7 2 16 -1 19 -3 4 -6 -2 -5 -13z"/>
<path d="M7288 9991 c-101 -7 -128 -21 -42 -21 163 0 421 -36 613 -85 126 -33
227 -47 176 -25 -11 5 -67 23 -125 40 -99 30 -132 40 -137 42 -2 1 -22 5 -45
9 -24 4 -79 15 -123 23 -102 20 -207 25 -317 17z"/>
<path d="M4604 9875 c3 -16 15 -86 26 -155 12 -69 37 -199 56 -290 20 -91 55
-261 80 -378 44 -214 82 -361 103 -401 11 -19 21 -25 37 -18 4 1 10 -8 15 -20
8 -23 29 -32 29 -13 0 30 62 -25 169 -149 25 -28 62 -60 84 -72 65 -33 64 -8
-5 95 -100 149 -103 154 -244 421 -110 209 -243 574 -310 853 -20 81 -38 149
-41 152 -3 3 -3 -8 1 -25z"/>
<path d="M17440 9736 c80 -86 282 -268 450 -405 243 -199 289 -242 423 -396
67 -77 167 -189 222 -250 94 -103 352 -390 474 -529 108 -122 123 -138 128
-132 9 9 -42 87 -99 151 -205 232 -452 501 -564 615 -166 169 -181 188 -159
196 19 8 126 -61 235 -150 113 -93 242 -186 370 -266 206 -130 374 -243 525
-355 39 -29 132 -89 207 -134 211 -126 300 -200 576 -478 237 -241 252 -254
252 -224 0 27 -21 55 -132 179 -72 81 -285 299 -472 485 -188 186 -334 336
-326 333 28 -9 444 -192 531 -233 126 -59 385 -151 396 -140 5 6 -10 13 -122
57 -33 13 -130 59 -215 103 -130 66 -292 141 -435 202 -89 37 -200 66 -231 60
-42 -7 -43 -26 -8 -72 14 -19 23 -37 20 -41 -21 -20 -510 286 -876 548 -74 53
-191 134 -259 179 -228 153 -639 468 -816 625 -125 112 -147 128 -95 72z"/>
<path d="M6948 9700 c-59 -5 -161 -21 -225 -36 -192 -42 -553 -190 -553 -225
0 -3 35 -3 78 -1 42 2 75 2 72 -1 -13 -13 -176 -47 -227 -48 -80 -1 -148 -12
-147 -24 0 -5 27 -25 60 -43 32 -18 67 -41 77 -51 18 -17 16 -20 -42 -76 -78
-75 -95 -86 -135 -89 -47 -4 -156 -79 -156 -108 0 -4 3 -7 8 -6 17 6 111 -44
117 -62 7 -21 0 -40 -15 -40 -14 0 -100 61 -100 71 0 5 -4 9 -9 9 -4 0 -6 -11
-3 -25 4 -24 24 -44 68 -71 18 -11 17 -14 -13 -52 -28 -34 -30 -42 -18 -52 8
-7 15 -27 15 -46 0 -18 4 -35 9 -38 5 -3 31 14 57 39 56 51 64 54 64 23 0 -13
11 -47 25 -76 13 -29 22 -59 19 -67 -11 -29 6 -35 44 -16 52 27 147 124 198
203 25 37 49 70 55 74 6 3 24 -8 39 -25 34 -37 41 -38 75 -8 28 24 33 50 20
105 -7 32 -5 36 61 98 58 54 77 65 124 75 72 15 113 36 196 104 110 88 124 92
394 119 323 33 496 27 800 -26 144 -25 192 -28 197 -11 2 6 -4 17 -13 25 -113
90 -116 122 -9 96 80 -19 87 -5 23 43 -122 90 -398 183 -663 224 -123 19 -422
27 -567 15z"/>
<path d="M16890 9650 c6 -11 16 -20 22 -20 6 0 3 9 -7 20 -10 11 -20 20 -22
20 -2 0 1 -9 7 -20z"/>
<path d="M12302 9483 c-19 -44 -142 -426 -157 -483 l-6 -25 15 26 c30 51 108
254 136 353 47 166 53 224 12 129z"/>
<path d="M12130 9479 c0 -2 -9 -29 -20 -59 -60 -161 -113 -504 -82 -524 13 -8
119 571 107 583 -3 2 -5 2 -5 0z"/>
<path d="M12827 9450 c-4 -8 -15 -58 -26 -110 -25 -121 -51 -195 -101 -287
-22 -41 -40 -77 -40 -79 0 -3 9 0 20 6 57 31 121 184 146 353 14 97 15 151 1
117z"/>
<path d="M13064 9434 c-18 -14 -18 -15 6 -8 14 3 32 10 40 15 12 7 11 8 -6 9
-11 0 -29 -7 -40 -16z"/>
<path d="M11942 9368 c-31 -69 -80 -220 -86 -263 -3 -22 -3 -32 0 -22 3 9 9
17 13 17 15 0 109 295 98 307 -3 3 -14 -15 -25 -39z"/>
<path d="M12463 9358 c-62 -120 -156 -419 -151 -476 l3 -37 17 25 c9 14 33 88
53 165 20 77 50 182 66 233 30 91 35 137 12 90z"/>
<path d="M14627 9303 c-11 -11 -8 -20 7 -20 8 0 12 6 9 14 -6 15 -7 15 -16 6z"/>
<path d="M12970 9180 c0 -77 20 -119 57 -120 8 0 6 14 -7 43 -11 24 -22 62
-26 85 -10 65 -24 60 -24 -8z"/>
<path d="M13176 9224 c-12 -32 -7 -94 9 -94 21 0 48 57 41 86 -7 27 -40 33
-50 8z"/>
<path d="M14019 9207 c-13 -10 -75 -159 -141 -337 -33 -91 -37 -98 -37 -77 -1
17 -2 17 -31 0 -16 -9 -30 -21 -30 -25 0 -5 -12 -21 -27 -36 -28 -28 -60 -36
-55 -14 3 15 -13 15 -38 2 -19 -10 -156 -188 -167 -217 -11 -28 -67 -118 -100
-159 -17 -22 -66 -96 -109 -164 -81 -132 -170 -266 -224 -338 l-33 -43 54 29
c30 16 59 27 65 25 6 -2 45 28 86 66 42 38 101 87 130 109 61 45 161 155 202
222 36 60 66 100 98 131 14 15 40 51 58 80 46 80 53 91 77 126 13 17 28 42 33
55 6 13 24 45 41 72 35 56 94 225 138 394 16 61 29 112 28 112 -1 0 -9 -6 -18
-13z"/>
<path d="M3155 9125 c2 -49 10 -124 18 -165 8 -41 30 -150 48 -242 l32 -167
-56 -138 c-31 -76 -70 -176 -86 -223 -56 -168 -206 -480 -319 -667 -152 -251
-424 -586 -696 -859 -128 -127 -409 -368 -504 -432 -100 -67 -151 -85 -356
-121 -62 -12 -116 -27 -125 -36 -14 -13 -12 -15 17 -15 91 0 426 66 481 95 24
12 24 13 -14 11 -64 -2 -57 25 15 63 34 18 132 86 218 151 270 203 681 643
907 970 73 106 175 267 175 277 0 3 9 18 21 34 18 26 25 44 28 71 2 20 31 -8
31 -29 0 -29 29 -133 37 -133 3 0 2 24 -2 53 -17 123 -8 187 46 305 26 57 31
62 54 56 15 -4 25 -2 25 4 0 6 24 27 53 46 52 35 52 36 69 16 9 -11 23 -19 30
-18 7 2 12 -3 11 -9 -2 -7 2 -13 7 -13 13 0 13 -7 -9 75 -31 113 -44 222 -43
353 1 72 -4 154 -12 195 -8 40 -17 102 -20 139 -3 36 -8 72 -11 80 -8 23 -45
280 -46 322 -1 34 -2 37 -8 16 l-8 -25 -6 25 c-3 14 -4 -15 -2 -65z"/>
<path d="M12551 9115 c-11 -46 -21 -104 -20 -127 l1 -43 19 59 c18 57 37 196
27 196 -3 0 -15 -38 -27 -85z"/>
<path d="M15132 8638 c-16 -18 -57 -66 -90 -106 -96 -115 -255 -287 -389 -419
-68 -66 -123 -126 -123 -133 0 -15 42 20 160 134 128 124 199 173 237 167 22
-3 255 371 240 385 -3 3 -19 -9 -35 -28z"/>
<path d="M15335 8562 c-44 -43 -114 -116 -157 -162 -42 -47 -95 -96 -118 -110
-23 -14 -76 -54 -118 -89 -42 -35 -88 -69 -102 -75 -50 -22 -220 -148 -259
-193 -49 -55 -119 -175 -154 -263 -26 -66 -86 -247 -92 -280 -14 -72 -14 -88
0 -94 13 -5 22 7 72 89 13 21 47 92 65 135 5 14 16 38 24 53 8 16 14 38 14 50
0 47 31 166 59 228 17 38 46 80 68 100 53 48 133 102 133 90 0 -5 -4 -13 -10
-16 -5 -3 -10 -15 -10 -25 0 -10 -3 -20 -7 -22 -21 -9 -77 -124 -68 -139 10
-16 22 -2 95 107 50 74 88 117 131 151 122 95 198 164 251 225 29 34 92 103
141 153 85 89 146 165 130 165 -4 0 -44 -35 -88 -78z"/>
<path d="M7223 8502 c-6 -4 -14 -29 -18 -57 -5 -43 -4 -47 7 -30 12 18 13 16
19 -25 5 -36 6 -28 7 38 1 45 1 82 0 82 -2 0 -8 -4 -15 -8z"/>
<path d="M6861 8244 c0 -11 3 -14 6 -6 3 7 2 16 -1 19 -3 4 -6 -2 -5 -13z"/>
<path d="M15876 8210 c-4 -30 -24 -127 -43 -215 -55 -252 -62 -295 -61 -380
l1 -80 8 75 c5 41 27 163 48 270 44 217 65 352 59 372 -3 7 -8 -12 -12 -42z"/>
<path d="M16825 8238 c4 -13 65 -142 137 -288 72 -146 177 -365 234 -487 125
-269 193 -403 204 -403 5 0 12 -9 15 -21 4 -11 9 -18 13 -15 3 3 13 -1 23 -10
17 -15 18 -15 15 2 -6 31 -563 1144 -598 1196 -35 51 -53 62 -43 26z"/>
<path d="M6851 8194 c0 -11 3 -14 6 -6 3 7 2 16 -1 19 -3 4 -6 -2 -5 -13z"/>
<path d="M6841 8144 c0 -11 3 -14 6 -6 3 7 2 16 -1 19 -3 4 -6 -2 -5 -13z"/>
<path d="M6832 8070 c0 -19 2 -27 5 -17 2 9 2 25 0 35 -3 9 -5 1 -5 -18z"/>
<path d="M3916 8074 c-5 -14 -4 -15 9 -4 17 14 19 20 6 20 -5 0 -12 -7 -15
-16z"/>
<path d="M9243 8023 c7 -70 34 -148 72 -204 56 -85 48 -24 -22 156 -44 117
-57 129 -50 48z"/>
<path d="M12905 7749 c-4 -6 -5 -12 -2 -15 2 -3 7 2 10 11 7 17 1 20 -8 4z"/>
<path d="M3531 7707 c2 -1 13 -9 24 -17 19 -14 19 -14 6 3 -7 9 -18 17 -24 17
-6 0 -8 -1 -6 -3z"/>
<path d="M12860 7555 c-30 -13 -65 -24 -78 -25 -22 0 -22 1 -7 16 32 33 6 23
-66 -24 -41 -27 -87 -54 -104 -60 -25 -8 -26 -11 -8 -11 28 -1 167 48 263 93
84 39 84 47 0 11z"/>
<path d="M3652 7498 c-53 -128 -131 -403 -118 -416 3 -3 1 -11 -5 -19 -8 -9
-8 -13 -1 -13 6 0 14 9 17 20 3 11 11 20 16 20 5 0 8 17 7 38 0 20 6 51 14 67
9 17 19 46 23 65 8 36 39 134 74 232 23 64 25 78 12 78 -5 0 -23 -33 -39 -72z"/>
<path d="M3927 7480 c-3 -11 -1 -20 4 -20 5 0 9 2 9 4 0 2 3 11 6 20 3 9 2 16
-4 16 -5 0 -12 -9 -15 -20z"/>
<path d="M10910 7475 c-315 -21 -561 -47 -760 -80 -176 -30 -281 -52 -512
-110 -236 -60 -368 -105 -513 -175 -172 -83 -386 -249 -398 -309 -8 -39 12
-166 35 -230 75 -201 303 -421 586 -565 60 -30 62 -31 62 -11 0 8 -36 44 -79
80 -44 36 -83 75 -86 86 -17 54 38 182 122 284 109 133 229 204 479 285 349
113 655 166 1024 177 l185 5 48 -48 c53 -53 118 -156 137 -216 9 -29 9 -46 0
-72 -25 -78 -159 -254 -250 -331 -149 -125 -300 -230 -415 -289 -38 -19 -65
-35 -60 -36 6 0 49 19 96 43 91 45 208 126 305 209 33 27 91 72 131 99 71 48
147 127 229 236 152 203 246 591 183 759 -29 76 -116 164 -190 192 -78 28
-140 31 -359 17z m137 -86 c43 -5 95 -15 115 -20 l38 -10 -31 -62 c-48 -95
-87 -147 -110 -147 -11 0 -40 11 -65 25 -56 31 -79 31 -157 0 -67 -28 -137
-42 -497 -105 -323 -56 -533 -99 -813 -165 -261 -61 -365 -81 -472 -89 -77 -7
-138 8 -143 35 -2 9 19 37 47 64 184 176 513 305 1036 404 184 35 355 58 517
70 169 12 446 12 535 0z"/>
<path d="M3852 7405 c-6 -23 -31 -71 -55 -106 -50 -73 -191 -297 -201 -319 -4
-8 -1 -7 6 3 7 10 55 78 107 150 122 172 190 272 193 287 2 7 -6 16 -18 20
-18 7 -22 3 -32 -35z"/>
<path d="M17655 7417 c10 -15 20 -25 23 -22 3 3 -5 16 -17 28 l-23 22 17 -28z"/>
<path d="M5847 7379 c7 -7 15 -10 18 -7 3 3 -2 9 -12 12 -14 6 -15 5 -6 -5z"/>
<path d="M17707 7348 c5 -7 49 -66 97 -130 48 -65 90 -118 93 -118 3 0 1 6 -4
13 -6 6 -49 65 -96 130 -48 64 -90 117 -93 117 -4 0 -2 -6 3 -12z"/>
<path d="M16031 7284 c0 -11 3 -14 6 -6 3 7 2 16 -1 19 -3 4 -6 -2 -5 -13z"/>
<path d="M16015 7210 c-4 -27 -4 -54 0 -60 3 -5 2 -10 -3 -10 -9 0 -26 -56
-23 -74 1 -4 -2 -13 -7 -20 -5 -6 -12 -33 -16 -60 -3 -27 -11 -55 -17 -62 -6
-8 -9 -23 -6 -34 3 -11 2 -20 -2 -20 -4 0 -8 -6 -9 -12 -1 -7 -4 -30 -6 -51
-2 -21 -10 -45 -16 -52 -7 -8 -10 -22 -6 -30 3 -8 2 -15 -2 -15 -4 0 -8 -9 -9
-19 -4 -50 -93 -322 -159 -481 -65 -160 -84 -212 -84 -233 0 -17 1 -17 26 -1
18 13 24 24 21 40 -3 15 4 31 19 45 13 13 24 30 24 39 0 9 9 33 20 55 11 21
18 49 16 61 -3 13 2 28 10 35 8 7 14 19 13 28 -3 33 2 49 25 83 13 19 24 47
24 61 0 14 11 41 26 59 14 19 26 46 26 59 0 13 9 46 19 74 71 186 99 321 105
498 2 81 3 147 1 147 -2 0 -6 -22 -10 -50z"/>
<path d="M17942 7028 c14 -18 49 -67 78 -108 78 -110 353 -471 408 -536 l33
-39 -30 47 c-56 84 -499 668 -508 668 -3 0 6 -15 19 -32z"/>
<path d="M3502 6949 c-15 -83 -15 -82 4 -75 8 3 12 2 9 -4 -3 -6 -2 -10 3 -10
11 0 52 73 52 94 0 9 -11 21 -24 26 -13 5 -26 15 -28 22 -3 7 -10 -17 -16 -53z"/>
<path d="M17580 6847 c0 -8 11 -24 25 -37 l25 -23 0 24 c0 27 -17 49 -37 49
-7 0 -13 -6 -13 -13z"/>
<path d="M3362 6625 c0 -16 2 -22 5 -12 2 9 2 23 0 30 -3 6 -5 -1 -5 -18z"/>
<path d="M16151 6366 c-1 -11 8 -164 20 -340 17 -263 20 -377 15 -633 -5 -284
-1 -346 18 -296 4 9 10 121 13 248 4 171 1 273 -11 400 -8 94 -23 271 -31 395
-15 206 -22 276 -24 226z"/>
<path d="M16102 6330 c0 -19 2 -27 5 -17 2 9 2 25 0 35 -3 9 -5 1 -5 -18z"/>
<path d="M4224 6248 c-50 -69 -124 -148 -138 -148 -10 0 -77 -47 -174 -122
-60 -46 -256 -255 -355 -376 -32 -39 -37 -85 -9 -75 32 12 226 169 342 277 30
29 93 85 140 126 47 40 90 81 97 89 19 25 15 5 -8 -40 -29 -58 -284 -309 -419
-414 -283 -219 -540 -407 -725 -530 -336 -223 -572 -365 -1095 -658 -152 -85
-309 -157 -338 -154 -18 1 -19 2 -1 32 10 16 51 62 90 100 39 39 106 111 147
160 42 50 193 207 337 350 278 277 392 407 552 630 56 77 127 169 158 205 101
116 284 374 273 385 -2 3 -59 -60 -126 -138 -207 -241 -208 -241 -318 -295
-54 -27 -137 -61 -184 -75 -258 -78 -358 -111 -382 -123 -39 -20 -203 -61
-278 -69 -36 -4 -83 -13 -105 -20 -22 -7 -69 -16 -105 -19 -72 -7 -76 -12 37
40 172 78 343 166 343 175 0 19 -67 3 -165 -40 -159 -69 -187 -79 -395 -130
-113 -28 -226 -57 -251 -65 -25 -8 -110 -17 -190 -20 -172 -8 -261 -15 -268
-21 -14 -14 562 8 657 25 30 5 126 14 215 20 275 17 388 31 504 61 138 35 338
100 435 140 150 63 169 69 162 57 -38 -65 -87 -126 -308 -384 -114 -132 -172
-195 -416 -449 -58 -60 -151 -162 -205 -225 -55 -63 -137 -155 -183 -203 -61
-66 -82 -96 -82 -116 0 -21 -8 -32 -32 -45 -38 -20 -23 -16 47 13 28 11 75 27
105 36 92 27 239 95 342 157 54 33 102 57 107 53 14 -8 4 -48 -16 -63 -10 -8
-39 -24 -64 -37 -25 -13 -59 -35 -75 -48 -48 -40 -143 -83 -349 -157 -49 -18
-94 -36 -99 -41 -6 -5 -18 -9 -28 -9 -11 0 -38 -9 -60 -20 -23 -11 -47 -20
-52 -20 -21 0 -208 -100 -284 -151 -126 -85 -293 -231 -506 -444 -111 -110
-220 -220 -241 -245 -127 -143 -285 -366 -285 -402 0 -21 1 -21 18 -5 15 16
15 19 2 28 -12 8 -9 9 11 5 20 -4 31 0 42 17 9 12 30 37 46 56 17 18 32 38 32
42 1 5 2 13 3 18 0 5 15 25 33 44 17 19 38 48 46 64 9 16 29 44 45 61 16 17
32 39 36 47 3 8 12 15 19 15 8 0 22 9 32 20 10 11 24 19 31 18 15 -4 77 33
157 94 34 26 67 48 73 48 5 0 23 18 40 39 46 62 72 71 198 67 108 -4 109 -5
141 -38 58 -59 113 -99 118 -85 9 25 16 -1 18 -70 1 -40 6 -70 11 -67 4 3 8
-2 8 -10 0 -8 9 -18 20 -21 11 -3 20 -11 20 -16 0 -5 10 -9 23 -10 12 0 16 -3
10 -6 -7 -2 -13 -20 -13 -38 0 -19 -5 -37 -10 -40 -6 -3 -10 -12 -9 -18 0 -9
2 -9 6 1 6 14 53 17 53 2 0 -5 0 -13 0 -17 0 -5 -4 -9 -10 -9 -23 -3 -24 -5
-11 -13 9 -6 -2 -19 -45 -50 -32 -23 -64 -39 -72 -36 -7 2 -11 1 -7 -4 3 -5
-21 -25 -52 -45 -49 -31 -59 -34 -71 -22 -12 12 -20 12 -51 -1 -20 -8 -43 -21
-51 -28 -8 -7 -40 -25 -70 -41 -30 -15 -80 -44 -110 -64 -30 -19 -66 -41 -80
-47 -28 -14 -32 -17 -138 -86 -41 -26 -79 -53 -86 -58 -12 -10 -72 -50 -168
-111 -67 -42 -90 -63 -81 -72 6 -6 0 -8 -29 -10 -7 -1 -20 -8 -28 -16 -34 -35
-72 -59 -86 -53 -11 4 -14 -4 -14 -31 0 -27 3 -35 13 -29 6 4 91 60 187 124
201 132 321 206 505 309 136 77 349 203 424 251 24 16 46 27 48 25 2 -2 -9
-23 -25 -47 -142 -215 -273 -809 -274 -1244 0 -119 24 -350 38 -364 2 -2 10 1
17 7 8 7 17 8 22 4 4 -4 -1 9 -11 28 -16 31 -19 60 -19 245 1 183 4 231 28
375 16 91 32 179 37 195 5 17 16 65 25 108 17 77 32 101 33 49 0 -47 4 -48 16
-7 9 28 19 41 34 43 17 3 22 -2 22 -17 0 -13 5 -18 13 -15 10 3 12 -5 9 -32
-3 -26 -1 -35 7 -30 6 4 11 14 11 22 0 8 4 12 10 9 42 -26 167 -22 221 7 38
20 58 23 149 23 89 0 111 -3 145 -22 22 -12 54 -27 71 -34 30 -12 46 -37 60
-93 5 -22 4 -27 -6 -21 -9 5 -11 4 -6 -3 4 -7 14 -12 22 -12 8 0 14 -4 14 -10
0 -5 3 -9 8 -9 19 3 32 -2 29 -12 -1 -6 4 -13 11 -15 7 -1 8 0 3 2 -11 6 5 43
24 56 28 21 30 2 10 -82 -4 -16 1 -11 16 15 11 22 34 54 49 70 15 17 42 58 59
92 34 69 289 451 450 676 58 81 126 175 149 210 325 466 527 736 633 845 83
86 139 151 139 163 0 24 -65 -28 -136 -108 -81 -92 -127 -135 -156 -146 -31
-11 -33 36 -5 116 28 82 47 145 83 285 56 220 91 296 204 450 68 93 78 102
260 239 191 144 207 159 248 242 l37 75 0 222 c0 122 2 224 5 227 3 3 14 7 25
9 16 2 21 -4 26 -37 6 -38 6 -38 4 8 -1 26 2 50 6 53 5 3 9 20 9 38 0 37 41
125 70 151 19 17 20 17 20 -1 -1 -32 -19 -227 -26 -271 -5 -36 -4 -41 12 -39
11 2 24 20 35 53 25 75 134 631 125 640 -2 2 -21 -20 -42 -49z m-788 -1470
c-20 -24 -48 -60 -61 -80 -14 -21 -29 -38 -35 -38 -5 0 -48 -18 -96 -40 -48
-23 -130 -59 -183 -82 -168 -71 -305 -145 -324 -175 -16 -26 -37 -14 -37 20 0
35 26 81 41 72 5 -4 9 1 9 9 0 10 -9 16 -22 16 -17 0 -30 13 -51 49 -43 77
-10 112 48 51 16 -16 34 -30 40 -30 7 0 45 22 86 49 81 53 223 115 339 149
302 87 295 87 246 30z m-326 -972 c0 -3 -30 -44 -67 -93 -36 -48 -82 -112
-100 -141 -19 -29 -100 -143 -181 -255 -299 -408 -439 -609 -631 -897 l-196
-295 -3 50 c-11 165 60 492 204 937 32 96 58 121 245 232 240 141 412 249 497
308 45 33 87 56 92 53 5 -3 36 19 67 49 52 50 73 65 73 52z m-1957 -1125 c-5
-3 -14 -17 -21 -31 -7 -14 -10 -16 -7 -5 4 11 9 33 12 49 5 24 7 26 16 11 5
-10 6 -20 0 -24z m-42 -117 c-5 -16 -10 -21 -10 -12 -1 18 10 51 15 45 2 -1
-1 -16 -5 -33z m-34 -144 c0 -16 -4 -30 -9 -30 -9 0 -11 22 -2 44 9 23 11 20
11 -14z m-15 -72 c-5 -7 -11 -17 -12 -23 -3 -16 -10 -19 -10 -4 0 33 13 60 23
50 7 -7 7 -14 -1 -23z"/>
<path d="M1702 6160 c-12 -6 -66 -41 -120 -79 -163 -116 -525 -327 -757 -442
-228 -113 -270 -138 -264 -158 3 -7 16 -3 39 12 19 13 125 70 235 127 110 57
241 128 290 160 50 31 146 87 215 125 105 58 373 228 405 256 12 12 -13 11
-43 -1z"/>
<path d="M16050 6140 c0 -19 3 -21 12 -12 9 9 9 15 0 24 -9 9 -12 7 -12 -12z"/>
<path d="M16012 6045 c-13 -14 -25 -39 -26 -58 -4 -41 -14 -60 -28 -51 -6 4
-8 2 -4 -4 3 -6 0 -16 -7 -24 -8 -7 -12 -19 -9 -26 3 -10 9 -9 23 4 10 9 19
21 19 25 0 5 14 37 31 73 35 73 35 97 1 61z"/>
<path d="M6111 5957 c0 -35 3 -77 8 -93 5 -20 8 -2 9 64 1 50 -2 92 -7 92 -5
0 -9 -28 -10 -63z"/>
<path d="M18340 5996 c0 -2 8 -10 18 -17 15 -13 16 -12 3 4 -13 16 -21 21 -21
13z"/>
<path d="M15629 5950 c-1 -8 -1 -18 0 -22 0 -5 -3 -8 -8 -8 -11 0 -21 -39 -12
-45 7 -3 23 21 37 55 2 3 -1 12 -7 20 -7 13 -9 13 -10 0z"/>
<path d="M18405 5913 c19 -27 40 -53 45 -60 6 -7 10 -15 10 -18 0 -7 60 -76
215 -249 50 -56 143 -162 207 -236 162 -187 208 -237 208 -225 0 11 -190 237
-368 439 -54 61 -152 174 -220 253 -68 79 -125 143 -127 143 -3 0 11 -21 30
-47z"/>
<path d="M15916 5853 c-8 -26 -51 -73 -66 -73 -7 0 -10 -3 -7 -7 4 -3 1 -13
-6 -21 -10 -12 -9 -14 2 -11 18 6 97 117 89 125 -3 3 -9 -3 -12 -13z"/>
<path d="M15580 5849 c0 -5 5 -7 10 -4 6 3 10 8 10 11 0 2 -4 4 -10 4 -5 0
-10 -5 -10 -11z"/>
<path d="M15546 5773 c-14 -29 -26 -56 -26 -60 0 -10 25 16 26 28 1 5 2 13 3
18 0 5 12 23 25 39 16 18 20 29 12 29 -8 0 -25 -24 -40 -54z"/>
<path d="M15494 5665 c-3 -8 -4 -20 -2 -27 3 -7 7 -1 10 15 6 29 1 36 -8 12z"/>
<path d="M15441 5544 c-15 -33 -19 -50 -12 -57 8 -8 11 -4 11 14 0 14 5 30 12
37 10 10 22 52 15 52 -2 0 -13 -21 -26 -46z"/>
<path d="M15399 5461 c-6 -17 -15 -31 -20 -31 -5 0 -8 -3 -7 -7 3 -13 -24 -63
-34 -63 -4 0 -8 -5 -8 -11 0 -6 -22 -44 -50 -85 -27 -41 -50 -76 -50 -79 0 -2
-24 -38 -52 -80 -29 -41 -57 -83 -63 -92 -5 -9 -17 -24 -25 -33 -34 -38 -52
-63 -62 -86 -6 -13 -15 -24 -19 -24 -5 0 -5 -7 -2 -17 4 -11 3 -14 -5 -9 -7 4
-12 1 -12 -8 0 -8 9 -20 19 -25 16 -9 27 -1 72 52 30 35 63 76 74 91 11 16 32
41 47 56 15 15 24 30 21 34 -4 3 -1 6 5 6 14 0 84 73 132 135 17 22 40 51 51
65 11 14 19 29 18 34 0 5 12 17 28 27 20 14 28 27 28 49 0 16 -3 30 -8 30 -4
0 -15 13 -25 30 -15 24 -21 27 -32 17 -8 -6 -7 -3 3 9 16 19 16 22 2 34 -13
11 -17 8 -26 -19z m81 -121 c0 -5 -2 -10 -4 -10 -3 0 -8 5 -11 10 -3 6 -1 10
4 10 6 0 11 -4 11 -10z"/>
<path d="M16916 5053 c3 -242 1 -406 -6 -448 -12 -73 -55 -208 -107 -333 -18
-46 -63 -169 -98 -274 -64 -190 -65 -192 -65 -302 0 -254 -76 -485 -237 -727
-95 -142 -241 -317 -332 -398 -45 -39 -78 -71 -74 -72 5 -1 21 0 36 1 15 1 33
-3 40 -8 7 -5 21 -12 32 -15 11 -3 -5 -3 -35 0 -77 8 -120 6 -203 -13 -143
-31 -164 -36 -292 -59 -154 -28 -229 -46 -310 -74 l-60 -20 47 2 c43 2 45 1
35 -18 -10 -19 -9 -19 9 -5 19 14 19 14 1 -7 -10 -11 -33 -24 -51 -27 -47 -9
-258 -78 -346 -114 -42 -17 -120 -42 -174 -56 -150 -39 -287 -90 -363 -134
-38 -22 -116 -64 -173 -92 -58 -29 -125 -66 -149 -83 -24 -16 -130 -72 -235
-125 -220 -109 -243 -123 -391 -247 -60 -51 -142 -113 -181 -137 -39 -25 -81
-60 -95 -77 -13 -17 -75 -84 -137 -148 -467 -484 -603 -651 -712 -878 -32 -66
-60 -130 -63 -142 l-5 -23 151 1 152 0 65 132 c36 73 94 179 129 237 35 58
111 184 169 280 57 96 106 177 109 180 3 3 2 -33 -1 -80 -16 -198 -10 -308 22
-430 16 -63 47 -160 68 -215 l40 -100 293 -3 293 -2 41 32 c107 82 183 157
338 333 93 105 216 244 274 309 143 161 263 325 426 579 119 186 309 520 409
717 34 68 129 311 134 344 3 22 27 34 69 35 23 1 27 -3 27 -26 -1 -89 -92
-337 -206 -560 -85 -166 -353 -633 -429 -748 -192 -290 -465 -626 -714 -877
l-136 -138 1031 0 1031 0 60 128 c95 199 200 460 268 667 76 230 91 265 238
570 64 132 143 312 175 400 104 277 132 347 198 481 35 73 64 140 64 150 0 32
12 40 108 83 223 101 272 107 497 58 88 -20 284 -60 436 -91 298 -60 365 -80
447 -134 112 -73 254 -266 312 -423 19 -52 79 -181 133 -287 143 -281 204
-454 267 -757 26 -124 97 -627 106 -752 l7 -93 203 0 c112 0 204 2 204 3 0 2
14 71 30 153 113 554 170 1056 170 1491 0 173 -22 501 -36 546 -4 13 -2 17 5
13 16 -10 40 -98 64 -241 21 -122 22 -160 21 -610 0 -403 -3 -495 -17 -575 -9
-52 -17 -141 -17 -198 0 -76 -4 -109 -16 -126 -8 -13 -19 -63 -24 -110 -5 -47
-12 -91 -16 -97 -6 -10 -54 -223 -54 -241 0 -5 75 -8 168 -8 111 0 162 4 152
10 -8 5 -12 10 -7 10 4 0 1 13 -7 28 -19 37 -40 190 -33 245 3 23 11 74 18
112 l12 70 15 -35 14 -35 10 25 c9 25 9 25 28 -15 10 -22 19 -32 19 -22 1 20
21 24 21 3 0 -7 7 -19 15 -26 8 -6 14 -15 13 -18 0 -4 0 -14 1 -22 1 -13 3
-13 10 -1 5 8 7 23 5 34 -2 11 1 26 7 33 6 7 7 19 3 25 -4 8 -3 9 4 5 7 -4 12
-14 12 -23 0 -9 3 -14 6 -10 3 3 -1 31 -10 61 -10 35 -15 83 -14 130 3 66 5
73 20 65 9 -5 18 -19 20 -31 2 -16 9 -22 21 -20 12 2 17 -4 18 -20 0 -15 3
-18 6 -8 3 8 10 18 16 21 5 4 -9 81 -36 195 -118 485 -208 890 -227 1023 -5
36 -23 153 -40 260 -17 107 -29 196 -27 197 7 8 47 -45 142 -186 92 -136 251
-350 261 -350 2 0 4 188 4 419 l0 418 -131 184 c-260 363 -437 558 -739 815
-305 259 -952 688 -1530 1016 -231 131 -356 209 -760 473 -211 138 -357 265
-391 340 -18 39 -18 33 -13 -342z m1713 -1225 c80 -106 263 -459 292 -563 19
-68 19 -741 1 -900 -12 -98 -54 -331 -68 -377 -9 -29 -22 -21 -43 26 -72 164
-223 309 -423 407 -38 18 -68 37 -68 42 0 5 31 84 69 176 94 229 128 337 155
501 32 192 40 300 41 518 0 122 1 222 2 222 1 0 20 -24 42 -52z m828 -920 c52
-71 144 -219 181 -293 59 -119 109 -393 131 -720 19 -274 31 -639 22 -648 -8
-8 -17 85 -41 433 -11 166 -51 491 -74 614 -15 74 -50 165 -186 476 -95 219
-96 221 -33 138z m-2880 -374 c-3 -3 -12 -4 -19 -1 -8 3 -5 6 6 6 11 1 17 -2
13 -5z m-180 -20 c-3 -3 -12 -4 -19 -1 -8 3 -5 6 6 6 11 1 17 -2 13 -5z m-80
-10 c-3 -3 -12 -4 -19 -1 -8 3 -5 6 6 6 11 1 17 -2 13 -5z m-74 -11 c-7 -2
-21 -2 -30 0 -10 3 -4 5 12 5 17 0 24 -2 18 -5z m-53 -7 c0 -2 -13 -6 -30 -8
-16 -3 -30 -1 -30 4 0 4 14 8 30 8 17 0 30 -2 30 -4z m-518 -138 c-6 -6 -15
-8 -19 -4 -4 4 -1 11 7 16 19 12 27 3 12 -12z m-19 -15 c4 -3 -19 -36 -50 -72
-84 -98 -85 -99 -63 -57 10 22 17 43 14 47 -3 5 -1 9 5 9 5 0 12 9 16 19 3 10
15 21 25 24 11 3 20 12 20 21 0 16 21 22 33 9z"/>
<path d="M16441 5315 c4 -50 -11 -395 -22 -480 -21 -170 -101 -674 -124 -785
-41 -192 -126 -454 -175 -538 -19 -32 -19 -32 0 -22 10 6 45 34 77 63 32 29
85 74 118 101 90 74 173 156 207 205 l31 44 -6 121 c-4 67 -16 182 -28 256
-18 110 -23 204 -29 505 -5 235 -13 402 -23 458 -13 84 -32 134 -26 72z"/>
<path d="M5166 5069 c-2 -8 -9 -40 -15 -71 -5 -31 -36 -121 -67 -200 -32 -82
-56 -156 -55 -173 10 -141 -11 -249 -85 -434 -84 -211 -179 -392 -231 -442
-50 -48 -131 -109 -198 -152 -38 -24 -206 -189 -175 -171 29 16 187 129 345
247 263 197 516 431 535 495 8 30 -5 269 -16 281 -5 6 -44 -30 -44 -40 0 -4
-13 -28 -30 -52 -16 -25 -47 -80 -67 -123 -38 -79 -38 -79 -41 -42 -2 29 8 58
49 135 121 226 154 320 179 516 l12 89 -32 64 c-37 71 -57 95 -64 73z"/>
<path d="M11524 5026 c-10 -8 -16 -17 -13 -20 3 -3 14 1 25 8 10 8 16 17 13
20 -3 3 -14 -1 -25 -8z"/>
<path d="M11482 4997 c-8 -10 -6 -13 7 -13 11 0 17 6 14 13 -3 7 -6 13 -8 13
-1 0 -7 -6 -13 -13z"/>
<path d="M9356 4792 c-5 -8 59 -42 204 -110 127 -59 324 -134 389 -148 13 -3
33 -10 44 -15 11 -6 17 -7 14 -1 -4 5 -28 17 -54 26 -88 32 -217 88 -307 133
-96 48 -265 123 -277 123 -4 0 -10 -4 -13 -8z"/>
<path d="M10982 4705 c-16 -19 -11 -19 24 0 23 12 25 15 9 15 -11 -1 -26 -7
-33 -15z"/>
<path d="M10933 4680 c-13 -5 -23 -12 -23 -15 0 -9 16 -5 36 10 22 16 19 18
-13 5z"/>
<path d="M10845 4630 c-3 -5 -2 -10 4 -10 5 0 13 5 16 10 3 6 2 10 -4 10 -5 0
-13 -4 -16 -10z"/>
<path d="M7051 4134 c0 -11 3 -14 6 -6 3 7 2 16 -1 19 -3 4 -6 -2 -5 -13z"/>
<path d="M5285 3962 c-152 -151 -215 -202 -407 -331 -60 -39 -108 -74 -108
-76 0 -19 260 150 384 250 129 104 320 305 289 305 -4 0 -75 -67 -158 -148z"/>
<path d="M1200 4055 c-14 -8 -20 -14 -15 -14 6 0 21 6 35 14 14 8 21 14 15 14
-5 0 -21 -6 -35 -14z"/>
<path d="M1130 4020 c-9 -6 -10 -10 -3 -10 6 0 15 5 18 10 8 12 4 12 -15 0z"/>
<path d="M1064 3984 c-18 -14 -18 -15 4 -4 12 6 22 13 22 15 0 8 -5 6 -26 -11z"/>
<path d="M6678 3873 c6 -2 18 -2 25 0 6 3 1 5 -13 5 -14 0 -19 -2 -12 -5z"/>
<path d="M5514 3783 c-82 -141 -175 -247 -313 -358 -147 -117 -169 -129 -231
-120 -27 4 -50 2 -54 -3 -7 -11 50 -37 259 -120 209 -83 279 -103 316 -90 36
12 90 3 116 -20 26 -23 174 -256 195 -307 33 -79 31 -161 -5 -300 -14 -50 -19
-87 -26 -197 -1 -5 -135 -8 -299 -8 -328 0 -447 -11 -592 -55 -47 -14 -119
-35 -160 -45 -155 -40 -468 -219 -679 -388 -84 -67 -421 -388 -567 -539 -30
-32 -79 -104 -121 -181 -154 -275 -235 -437 -237 -469 0 -13 -5 -23 -10 -23
-4 0 -6 -7 -2 -15 3 -8 2 -15 -2 -15 -4 0 -8 -8 -9 -17 -1 -10 -29 -97 -61
-193 -33 -96 -63 -191 -66 -210 -11 -60 18 -16 59 90 202 524 257 639 428 893
132 197 177 247 411 457 159 144 313 257 500 369 258 154 376 203 604 251 78
17 153 37 166 45 40 26 266 46 266 23 0 -6 -22 -58 -50 -114 -27 -57 -75 -185
-105 -284 -31 -99 -84 -253 -119 -343 -34 -89 -79 -207 -99 -262 -20 -55 -79
-215 -131 -355 -97 -264 -132 -374 -221 -693 l-52 -187 73 0 72 0 45 52 c66
79 123 166 147 228 96 243 349 783 499 1064 95 179 169 360 211 521 11 44 33
118 47 165 23 75 27 82 32 55 8 -36 -14 -229 -36 -335 -26 -123 -76 -244 -213
-515 -147 -290 -264 -539 -304 -650 -20 -55 -49 -129 -64 -164 -15 -36 -29
-69 -31 -74 -7 -18 130 96 170 141 70 79 140 183 179 267 42 88 118 336 132
430 5 33 43 166 84 295 40 129 89 298 108 375 19 77 40 156 46 175 37 118 57
469 26 457 -8 -3 -17 1 -20 9 -8 22 4 65 16 58 14 -9 2 262 -18 386 -19 123
-43 211 -106 390 -28 80 -74 223 -102 319 -28 96 -56 176 -62 178 -7 2 -24
-18 -40 -44z"/>
<path d="M20160 3767 c0 -3 64 -136 143 -294 79 -158 150 -304 159 -323 l17
-35 0 50 c1 44 -6 63 -55 145 -70 117 -146 267 -170 338 -11 31 -34 68 -56 89
-21 21 -38 34 -38 30z"/>
<path d="M16480 3661 c-106 -109 -388 -363 -471 -425 -46 -35 -194 -137 -328
-227 -238 -159 -375 -258 -591 -428 -58 -45 -149 -117 -202 -158 -142 -110
-135 -115 57 -47 71 25 197 59 280 76 82 17 153 33 157 37 4 3 2 28 -4 55
l-10 49 -54 -7 c-30 -3 -54 -2 -54 2 0 5 24 30 54 56 30 26 56 57 58 69 4 25
78 85 116 92 15 3 39 12 55 20 15 8 34 12 41 9 8 -3 32 4 54 15 45 23 68 20
77 -10 5 -14 12 -18 26 -14 39 13 70 -43 45 -83 -12 -20 -26 -134 -19 -160 6
-26 26 -25 87 4 17 8 23 12 14 10 -15 -4 -15 -3 0 24 15 26 15 30 0 47 -29 32
-28 118 1 126 15 3 18 11 14 27 -4 17 -2 21 8 18 8 -3 27 6 44 20 29 24 30 24
35 3 5 -19 7 -18 45 17 21 20 46 37 55 37 8 1 14 7 12 15 -3 11 -1 12 8 4 9
-9 8 -18 -5 -37 -16 -24 -15 -26 4 -36 14 -8 18 -18 15 -34 -3 -12 -6 -26 -7
-32 -5 -20 -19 -35 -27 -30 -13 8 -52 -37 -41 -48 10 -10 88 70 84 84 -2 5 3
6 10 4 16 -7 111 83 175 166 29 37 52 70 52 74 0 9 62 99 74 107 6 4 7 8 2 8
-5 0 -2 7 5 16 7 9 19 30 25 48 7 17 21 55 32 84 35 89 79 414 56 411 -5 -1
-34 -27 -64 -58z m-86 -208 c4 -5 13 -8 19 -8 30 0 17 -85 -31 -213 -18 -49
-32 -71 -42 -70 -18 3 -57 -17 -86 -44 -21 -19 -21 -19 -19 6 4 34 14 48 30
42 8 -3 12 2 10 12 -1 9 3 29 11 43 7 15 9 31 4 39 -6 10 -9 7 -12 -11 l-4
-24 -12 25 c-7 14 -17 33 -24 42 -10 13 -7 24 17 60 57 85 114 126 139 101z
m-124 -243 c0 -4 -10 -15 -22 -26 -17 -14 -20 -15 -9 -2 7 9 10 21 7 26 -3 5
1 9 9 9 8 0 15 -3 15 -7z"/>
<path d="M6344 3552 c4 -53 10 -117 13 -142 l7 -45 9 40 c26 119 20 229 -15
238 -20 6 -21 4 -14 -91z"/>
<path d="M6610 3622 c0 -4 -10 -12 -22 -17 -13 -6 -28 -21 -36 -35 -12 -23
-12 -40 1 -155 2 -16 -3 -41 -12 -53 -8 -13 -18 -42 -22 -65 -4 -23 -12 -59
-17 -79 -6 -21 -6 -38 -1 -38 9 0 2 -97 -9 -114 -3 -6 2 -5 11 3 9 7 17 20 17
28 0 8 5 24 12 36 7 12 13 27 14 33 1 6 11 37 22 70 26 79 42 148 41 182 0 24
-1 25 -9 7 -8 -17 -9 -16 -9 9 -1 20 3 27 13 23 11 -4 13 12 12 84 0 49 -2 89
-3 89 -2 0 -3 -3 -3 -8z"/>
<path d="M6625 3600 c-4 -17 -5 -34 -2 -36 2 -3 7 10 11 27 8 42 0 50 -9 9z"/>
<path d="M4728 3534 c-38 -20 -36 -28 2 -9 17 9 30 18 30 20 0 7 -1 6 -32 -11z"/>
<path d="M4670 3500 c-9 -6 -10 -10 -3 -10 6 0 15 5 18 10 8 12 4 12 -15 0z"/>
<path d="M6880 3478 c0 -15 5 -30 10 -33 13 -8 13 25 0 45 -8 12 -10 9 -10
-12z"/>
<path d="M4978 3071 c4 -45 3 -47 -45 -82 -26 -20 -163 -94 -303 -166 -262
-133 -480 -257 -480 -273 0 -5 -6 -7 -14 -4 -8 3 -17 0 -22 -7 -4 -7 -3 -10 4
-5 6 3 16 -2 21 -13 6 -11 24 -22 41 -26 16 -4 32 -11 35 -16 4 -5 19 -2 36 6
16 9 29 13 29 11 0 -3 25 6 55 19 31 14 57 20 60 15 8 -14 -12 -48 -36 -60
-11 -6 -17 -15 -14 -19 3 -5 -2 -11 -10 -15 -8 -3 -15 -10 -15 -16 0 -6 5 -8
12 -4 6 4 8 3 5 -3 -4 -6 -28 -16 -54 -23 -71 -18 -76 -20 -70 -26 12 -12 243
58 330 100 215 104 484 254 597 334 75 53 256 200 283 229 17 20 16 21 -85 42
-124 25 -222 40 -304 45 l-61 3 5 -46z"/>
<path d="M3360 2818 c-313 -179 -525 -316 -815 -528 -88 -64 -205 -149 -260
-188 -101 -72 -173 -131 -145 -117 37 19 431 287 580 396 189 138 460 319 603
403 53 32 97 59 97 62 0 6 -1 6 -60 -28z"/>
<path d="M15965 2691 c-6 -5 -19 -11 -30 -13 -16 -3 -15 -5 8 -10 15 -3 25 -3
22 0 -2 3 0 11 6 19 13 15 8 18 -6 4z"/>
<path d="M6851 2668 c-5 -12 -31 -88 -56 -168 -44 -135 -73 -216 -95 -265
-173 -381 -352 -732 -470 -925 -127 -206 -169 -284 -166 -300 6 -31 19 -50 32
-50 8 0 14 -10 14 -25 0 -25 11 -30 53 -27 9 1 17 -2 17 -6 0 -13 -38 -70
-126 -188 -47 -64 -83 -118 -81 -121 7 -6 178 186 243 274 62 83 174 275 244
418 74 152 267 744 320 980 12 55 39 163 61 240 21 77 39 149 41 159 4 28 -21
31 -31 4z"/>
<path d="M15570 2634 c-29 -20 -67 -42 -85 -50 -24 -10 -34 -21 -39 -45 -3
-18 -2 -37 2 -41 11 -11 117 29 135 51 16 19 51 110 45 117 -3 2 -29 -12 -58
-32z"/>
<path d="M12855 2315 c-20 -16 -25 -24 -14 -25 8 0 26 11 39 25 30 32 14 32
-25 0z"/>
<path d="M4109 2315 c-15 -8 -125 -40 -245 -71 -386 -99 -743 -213 -927 -296
-212 -96 -539 -281 -717 -407 -143 -101 -385 -308 -511 -437 -185 -190 -395
-466 -474 -624 -36 -73 -185 -452 -185 -473 0 -12 325 -8 337 4 8 8 13 8 17 0
10 -16 1466 -15 1466 1 0 6 24 73 54 147 30 75 70 177 90 227 19 50 44 107 55
125 27 47 63 147 58 162 -9 26 92 235 271 557 153 277 203 356 308 485 181
224 224 283 317 434 49 80 96 154 105 164 18 20 15 21 -19 2z m-2611 -2161
c-1 -5 -9 -9 -16 -10 -10 -2 -11 1 -1 12 12 14 24 13 17 -2z m-41 -49 c0 -8
-4 -12 -9 -9 -5 3 -6 10 -3 15 9 13 12 11 12 -6z"/>
<path d="M18876 1665 c3 -17 38 -127 76 -245 38 -118 92 -287 118 -375 50
-163 88 -276 89 -263 2 14 -112 386 -195 643 -79 239 -107 315 -88 240z"/>
<path d="M1706 1615 c-9 -26 -7 -32 5 -12 6 10 9 21 6 23 -2 3 -7 -2 -11 -11z"/>
<path d="M12285 1363 c-43 -22 -102 -81 -125 -125 -11 -21 -16 -38 -12 -38 4
1 50 41 102 90 90 85 101 108 35 73z"/>
<path d="M1520 1306 c-30 -18 -111 -66 -180 -107 -69 -40 -156 -94 -195 -119
-38 -25 -85 -52 -102 -59 -18 -7 -33 -17 -33 -22 0 -5 1 -9 3 -9 6 0 307 173
357 205 92 58 210 138 210 141 0 6 -2 5 -60 -30z"/>
<path d="M970 982 c0 -4 -15 -14 -32 -21 -46 -20 -242 -134 -373 -216 -234
-146 -349 -227 -488 -345 -68 -58 -76 -69 -77 -100 l0 -34 49 51 c96 101 189
167 773 549 155 101 184 124 158 124 -5 0 -10 -3 -10 -8z"/>
<path d="M16417 847 c-22 -27 -80 -147 -74 -153 2 -2 25 35 50 83 26 47 46 88
44 89 -1 2 -10 -7 -20 -19z"/>
<path d="M12101 640 c-5 -14 -20 -79 -31 -145 -11 -66 -27 -154 -35 -195 -16
-87 -19 -186 -5 -195 33 -20 88 199 96 385 4 73 2 135 -4 150 l-10 25 -11 -25z"/>
<path d="M20412 560 c0 -14 2 -19 5 -12 2 6 2 18 0 25 -3 6 -5 1 -5 -13z"/>
<path d="M20301 304 c0 -11 3 -14 6 -6 3 7 2 16 -1 19 -3 4 -6 -2 -5 -13z"/>
</g>
</svg>
